<?xml version="1.0" encoding="iso-8859-1"?>
<!-- Generator: Adobe Illustrator 21.0.2, SVG Export Plug-In . SVG Version: 6.00 Build 0)  -->
<svg version="1.1" id="Layer_1" xmlns="http://www.w3.org/2000/svg" xmlns:xlink="http://www.w3.org/1999/xlink" x="0px" y="0px"
	 viewBox="0 0 119 49" style="enable-background:new 0 0 119 49;" xml:space="preserve">
<g>
	<g>
		<path style="fill:#08A1FF;" d="M96.914,2.477l0.468,1.195l0.152-0.582C97.448,2.746,97.046,2.161,96.914,2.477z"/>
		<path style="fill:#08A1FF;" d="M95.427,3.146c-0.21-0.162-0.297-0.508-0.393-0.719c0.058,0.74,0.303,1.903,1.02,2.729
			c-0.351-1.241-0.049-0.872-0.494-2.324c0.132-0.316,0.551,0.003,0.742,0.425c-0.085-0.34,0.45-0.067,0.175-0.835
			C95.739,1.852,95.385,2.137,95.427,3.146z"/>
		<path style="fill:#08A1FF;" d="M74.047,19.169l0.201,0.016C74.174,19.144,74.107,19.144,74.047,19.169z"/>
		<path style="fill:#08A1FF;" d="M62.511,26.991c0.078-0.073,0.15-0.257,0.193-0.414C62.618,26.718,62.539,26.848,62.511,26.991z"/>
		<path style="fill:#08A1FF;" d="M62.104,25.468c-0.011,0.055-0.007,0.076-0.009,0.112C62.161,25.41,62.192,25.318,62.104,25.468z"
			/>
		<path style="fill:#08A1FF;" d="M74.047,19.169l-0.52-0.051C73.692,19.493,73.84,19.232,74.047,19.169z"/>
		<path style="fill:#08A1FF;" d="M93.769,7.578c0.04-0.116,0.04-0.27,0.018-0.448c-0.03,0.1-0.063,0.19-0.103,0.272
			C93.713,7.462,93.74,7.514,93.769,7.578z"/>
		<path style="fill:#08A1FF;" d="M79.101,13.408l0.1-0.093c-0.038-0.149-0.092-0.322-0.158-0.512L79.101,13.408z"/>
		<path style="fill:#08A1FF;" d="M83.757,10.828c-0.157-0.423-0.187-0.666-0.144-0.812c-0.096-0.174-0.225-0.369-0.405-0.602
			C83.091,9.461,83.57,10.398,83.757,10.828z"/>
		<path style="fill:#08A1FF;" d="M90.766,4.65c0.006-0.025,0.011-0.049,0.014-0.071L90.766,4.65z"/>
		<path style="fill:#08A1FF;" d="M90.734,4.813l0.032-0.163C90.753,4.701,90.738,4.757,90.734,4.813z"/>
		<path style="fill:#08A1FF;" d="M75.967,15.908c-0.081-0.13-0.162-0.237-0.216-0.294C75.812,15.729,75.887,15.825,75.967,15.908z"
			/>
		<path style="fill:#08A1FF;" d="M9.371,36.888c-0.041-0.06-0.073-0.089-0.111-0.139C9.302,36.856,9.34,36.92,9.371,36.888z"/>
		<path style="fill:#08A1FF;" d="M2.194,38.66l0.023-0.12c-0.112-0.156-0.221-0.31-0.336-0.455L2.194,38.66z"/>
		<path style="fill:#08A1FF;" d="M63.02,22.806c-0.009,0.01-0.012,0.014-0.021,0.024C63.114,22.737,63.095,22.744,63.02,22.806z"/>
		<polygon style="fill:#08A1FF;" points="36.09,33.812 36.09,33.812 36.091,33.813 		"/>
		<path style="fill:#08A1FF;" d="M93.593,7.562c-0.05,0.064-0.103,0.125-0.166,0.17C93.522,7.689,93.573,7.637,93.593,7.562z"/>
		<path style="fill:#08A1FF;" d="M55.628,15.062c0.114,0.136,0.222,0.217,0.329,0.291C55.899,15.265,55.81,15.176,55.628,15.062z"/>
		<path style="fill:#08A1FF;" d="M61.199,23.022c0.05-0.061,0.099-0.12,0.148-0.178C61.253,22.925,61.217,22.98,61.199,23.022z"/>
		<path style="fill:#08A1FF;" d="M53.014,20.071c-0.051-0.003-0.088,0.003-0.117,0.017C52.933,20.084,52.973,20.084,53.014,20.071z"
			/>
		<path style="fill:#08A1FF;" d="M52.897,20.088c-0.076,0.007-0.134,0.026-0.158,0.196c0.041,0.028,0.073,0.044,0.107,0.056
			C52.818,20.222,52.82,20.126,52.897,20.088z"/>
		<path style="fill:#08A1FF;" d="M49.825,24.458c0.066,0.033,0.124,0.043,0.187,0.066c0.017-0.06,0.042-0.124,0.062-0.185
			L49.825,24.458z"/>
		<path style="fill:#08A1FF;" d="M14.247,27.956c-0.132,0.76-0.266,1.324-0.33,1.645c-0.065,0.322-0.077,0.412,0.016,0.254
			C14.082,28.956,14.174,28.396,14.247,27.956z"/>
		<path style="fill:#08A1FF;" d="M93.475,7.074c0.11,0.246,0.144,0.388,0.117,0.488c0.035-0.049,0.064-0.104,0.091-0.161
			C93.617,7.258,93.546,7.129,93.475,7.074z"/>
		<path style="fill:#08A1FF;" d="M27.926,33.114l-0.033,0.251C27.95,33.32,27.971,33.241,27.926,33.114z"/>
		<path style="fill:#08A1FF;" d="M20.34,24.128c-0.007,0.012-0.014,0.029-0.021,0.051C20.326,24.161,20.333,24.145,20.34,24.128z"/>
		<path style="fill:#08A1FF;" d="M13.957,19.762c-0.028-0.048-0.064-0.087-0.11-0.137C13.885,19.676,13.921,19.721,13.957,19.762z"
			/>
		<path style="fill:#08A1FF;" d="M14.28,27.752c-0.01,0.061-0.02,0.122-0.03,0.182C14.26,27.875,14.27,27.814,14.28,27.752z"/>
		<path style="fill:#08A1FF;" d="M29.159,31.962c0.008,0.024,0.018,0.05,0.03,0.08C29.178,32.015,29.168,31.989,29.159,31.962z"/>
		<path style="fill:#08A1FF;" d="M29.189,32.042c0.016,0.04,0.032,0.081,0.051,0.123C29.219,32.119,29.203,32.079,29.189,32.042z"/>
		<path style="fill:#08A1FF;" d="M11.839,32.335c-0.012,0.008-0.023,0.015-0.035,0.024C11.822,32.359,11.833,32.35,11.839,32.335z"
			/>
		<path style="fill:#08A1FF;" d="M7.54,38.663c0.001,0.023,0.003,0.047,0.005,0.072C7.545,38.711,7.542,38.687,7.54,38.663z"/>
		<path style="fill:#08A1FF;" d="M53.919,32.037c-0.001-0.042-0.003-0.101-0.011-0.162C53.904,31.929,53.906,31.983,53.919,32.037z"
			/>
		<path style="fill:#08A1FF;" d="M54.538,34.192c0.001-0.025,0.002-0.05,0.004-0.076C54.538,34.148,54.537,34.172,54.538,34.192z"/>
		<path style="fill:#08A1FF;" d="M57.359,15.841l-0.464-0.465c-0.009,0.061-0.017,0.122-0.025,0.183l0.367,0.368
			C57.276,15.896,57.318,15.868,57.359,15.841z"/>
		<path style="fill:#08A1FF;" d="M61.821,20.522c0.03-0.039,0.061-0.077,0.093-0.115l-0.438-0.439
			c-0.026,0.044-0.051,0.087-0.077,0.131L61.821,20.522z"/>
		<path style="fill:#08A1FF;" d="M94.481,3.949l0.115,0.015C94.55,3.92,94.509,3.908,94.481,3.949z"/>
		<path style="fill:#08A1FF;" d="M52.899,21.409c-0.011-0.028-0.024-0.053-0.042-0.077C52.858,21.332,52.874,21.365,52.899,21.409z"
			/>
		<path style="fill:#08A1FF;" d="M94.596,3.965c0.16,0.155,0.384,0.71,0.369,0.912c0.04,1.006-0.677,0.18-0.877-0.115l0.143-0.445
			c-1.322-1.578-0.869,1.278-1.451,1.665l-0.551-1.537l0.103,1.611c-0.314-0.24-0.82-0.91-0.677-1.352
			c-0.752-0.306-0.058,0.786-0.801,0.355c-0.101-0.081-0.122-0.16-0.12-0.244l-0.136,0.742c-0.09-0.348-0.602-0.884-0.267-0.903
			c-1.096-0.151-0.482,1.996-1.308,1.217l0.008-0.134c-0.651,1.306,0.474,1.062,0.45,2.854l-1.843-1.986l0.471,1.064
			c-0.114,0.053-0.342,0.153-0.532-0.271c0.034,0.999,0.303,0.371,0.462,1.194c-0.962-0.469-1.01,1.586-2.003,0.116
			c0.262,0.897,0.761,0.172,0.572,1.141c-1.095-1.555-0.396,0.809-1.249,0.422c-0.365-0.987,0.287-0.892-0.566-1.282
			c0.583,1.701-0.989,0.424-1.179,1.028c0.645,1.188-0.485,1.191-0.853,2.121c-0.184-0.428-1.469,0.369-2.255,0.44l-0.094-0.212
			c0.557,1.287-0.135,1.576-0.412,2.194c-0.378-0.728-0.46-1.076-0.414-1.597l-0.384,0.355c0.12,0.465,0.11,0.775-0.066,1.138
			l-0.395-0.98c-0.487,0.515-0.463,1.983-1.456,1.982c0.418,0.869,1.803,1.849,1.399,3.038c-0.273-0.428-0.72-1.177-0.636-1.527
			c-0.028,0.114-0.011,0.568-0.239,0.483l-0.132-1.01c-0.486-0.063,0.187,0.776-0.095,0.921c-0.346-0.649-0.431-0.301-0.674-0.843
			c0.028-0.117,0.357,0.078,0.313-0.256c-0.338,0.127-0.877,0.038-1.252-0.355c0.223,0.346,0.472,0.869,0.316,1.13
			c-0.494,0.506-0.598-0.62-1.081-0.685c0.117,0.559-0.467,0.383,0.046,1.358c-0.155,0.128-0.426-0.298-0.626-0.509
			c-0.04,0.662-1.195,1.218-0.34,1.984l0.106,0.008c-0.002,0.031-0.017,0.045-0.022,0.081c0.002-0.002,0,0,0.002-0.002l-0.002,0.002
			c-0.188,0.864-0.724,1.125-1.294,1.315c-0.572,0.189-1.179,0.302-1.512,0.887l-0.17-0.328c-0.334,0.822-1.061,1.21-1.08,2.228
			c-0.159,0.129-0.678-0.294-0.81-0.742c-0.279,0.577-0.14,0.986-1,0.911c0.121-0.903-0.395-0.398,0.207-0.758
			c-0.334,0.071-0.597-0.006-0.79,0.068c-0.193,0.074-0.316,0.303-0.379,0.979c-0.223-1-0.916-0.777-1.042-0.331l0.662,0.333
			c-0.223,0.34-0.507,0.454-0.794,0.562l-0.395-1.234c-0.429-0.151-0.692,0.011-0.881,0.303c-0.047,0.073-0.09,0.154-0.129,0.241
			c-0.02,0.044-0.038,0.089-0.057,0.135l-0.027,0.07l-0.013,0.036c-0.002,0.006-0.005,0.013-0.006,0.018l0,0.013
			c0.002,0.142,0.006,0.311-0.002,0.471c-0.013,0.32-0.074,0.63-0.193,0.713c-0.115,0.082-0.29-0.072-0.451-0.726
			c-0.003,0.261,0.01,0.428,0.042,0.544c0.031,0.116,0.08,0.183,0.134,0.251c0.053,0.069,0.112,0.14,0.161,0.267
			c0.048,0.128,0.09,0.31,0.092,0.612c-0.094,0.009-0.203-0.094-0.301-0.26c-0.098-0.166-0.185-0.397-0.251-0.634
			c-0.135-0.475-0.182-0.981-0.209-0.968c-0.053-0.174-0.088-0.121-0.138,0.064c-0.049,0.183-0.11,0.495-0.184,0.822
			c-0.074,0.327-0.161,0.669-0.255,0.908c-0.093,0.238-0.196,0.377-0.273,0.274c-0.035,0.284-0.107,0.81-0.24,1.362
			c-0.133,0.552-0.34,1.137-0.678,1.554c-0.11,0.004-0.158-0.137-0.153-0.366c0.005-0.229,0.061-0.544,0.145-0.881
			c0.169-0.675,0.436-1.42,0.594-1.713c0.083-0.086,0.064,0.094,0.007,0.303c0.08-0.136,0.166-0.284,0.235-0.472
			c0.07-0.188,0.119-0.415,0.152-0.721c-0.059,0.207-0.121,0.416-0.184,0.625c0.009-0.279-0.066-0.36-0.093-0.516
			c-0.028-0.154,0.008-0.378,0.217-0.917c-0.17,0.334-0.291,0.61-0.354,0.832c-0.046,0.158-0.063,0.288-0.062,0.397
			c-0.013-0.109-0.034-0.165-0.067-0.187c-0.042-0.028-0.103,0.001-0.17,0.04c-0.067,0.039-0.14,0.09-0.197,0.096
			c-0.056,0.007-0.098-0.03-0.089-0.174c-0.147,0.366-0.477,1.152-0.537,1.167c-0.039-0.165-0.103-0.164-0.208-0.056
			c-0.104,0.108-0.243,0.321-0.4,0.57c-0.315,0.5-0.69,1.139-1.052,1.371c0.089-0.253,0.247-0.546,0.411-0.827
			c0.164-0.28,0.333-0.547,0.456-0.749c0.124-0.202,0.203-0.339,0.193-0.361c-0.011-0.022-0.108,0.069-0.36,0.33
			c0.002-0.008,0.013-0.028,0.021-0.044c0.009-0.017,0.017-0.034,0.025-0.05c0.018-0.035,0.035-0.068,0.051-0.099
			c0.035-0.065,0.07-0.13,0.105-0.193c0.071-0.126,0.145-0.249,0.22-0.367c0.149-0.237,0.303-0.461,0.452-0.673
			c0.159-0.221,0.544-0.756,0.803-1.115l-0.084,0.11c-0.026,0.033-0.054,0.07-0.069,0.087c-0.035,0.041-0.062,0.071-0.084,0.092
			c-0.044,0.042-0.064,0.046-0.065,0.024c-0.003-0.086,0.239-0.513,0.494-0.911c0.256-0.402,0.525-0.779,0.593-0.886
			c0.096-0.104,0.192-0.215,0.29-0.331c-0.14,0.163-0.131,0.125-0.127,0.1c-0.305,0.378-0.613,0.769-0.921,1.174
			c0.17-0.274,0.179-0.33,0.557-0.772c-0.294,0.32-0.671,0.761-1.076,1.24c-0.404,0.473-0.838,0.989-1.22,1.282
			c0.243-0.36,0.14-0.374,0.13-0.488c-0.01-0.11,0.069-0.303,0.653-0.872c-0.118,0.226-0.104,0.272-0.012,0.201
			c0.091-0.07,0.259-0.249,0.444-0.445c0.297-0.317,0.638-0.662,0.805-0.787c-0.014-0.013,0.03-0.091,0.131-0.221
			c0.131-0.133,0.24-0.223,0.305-0.277c0.267-0.297,0.315-0.346,0.244-0.296c-0.071,0.052-0.263,0.211-0.485,0.388
			c-0.222,0.177-0.474,0.373-0.664,0.493c-0.19,0.12-0.318,0.157-0.294,0.04c0.311-0.2,0.614-0.445,0.82-0.611
			c0.207-0.169,0.317-0.263,0.253-0.238c-0.025,0.085-1.058,0.806-1.498,0.879c0.134-0.159,0.182-0.239,0.18-0.286
			c-0.002-0.046-0.052-0.056-0.116-0.059c-0.128-0.004-0.307,0.019-0.262-0.094c-0.086,0.106-0.173,0.219-0.26,0.338
			c-0.295,0.104-0.412,0.08-0.47-0.003c-0.058-0.084-0.06-0.222-0.121-0.373c0.135-0.047,0.213-0.049,0.262-0.033
			c-0.04-0.036-0.038-0.089-0.007-0.149c0.059-0.116,0.22-0.257,0.389-0.385c0.169-0.129,0.345-0.245,0.442-0.344
			c0.097-0.101,0.114-0.187-0.028-0.299c0.134-0.057,0.291-0.064,0.452-0.056c0.007,0.012,0.012,0.022,0.02,0.034
			c0.005-0.011,0.008-0.022,0.013-0.032c0.071,0.004,0.142,0.01,0.213,0.016c0.24,0.023,0.466,0.04,0.597,0.014
			c-0.323-0.176-0.124-0.23,0.09-0.27c0.106-0.018,0.214-0.027,0.266-0.064c0.013-0.009,0.022-0.021,0.027-0.035
			c0.002-0.007,0.004-0.015,0.004-0.023c0-0.004,0-0.009-0.001-0.013c0-0.003-0.001-0.004-0.001-0.008l0.001-0.018
			c0.003-0.098-0.014-0.216-0.057-0.361c-0.736-0.046-0.581,0.082-1.105-0.874l0.039,0.436l0.014,0.161l-0.157-0.157
			c-0.08,0.104-0.148,0.215-0.18,0.348c-0.046-0.052-0.092-0.103-0.138-0.158l-0.108-0.134l-0.098-0.179
			c-0.007,0.029-0.012,0.058-0.015,0.089c-0.002,0.014-0.004,0.033-0.004,0.044c0,0.011,0,0.022,0.001,0.033
			c0.003,0.045,0.01,0.091,0.021,0.139c0.022,0.094,0.057,0.19,0.091,0.277c0.033,0.088,0.065,0.167,0.078,0.233
			c0.014,0.062,0.013,0.104-0.025,0.135c-0.266-0.19-0.346-0.309-0.445-0.35c-0.022-0.01-0.046-0.017-0.072-0.021
			c0.153-0.305,0.31-0.598,0.472-0.878l-0.671-0.672c0.021-0.043,0.05-0.083,0.088-0.12l0.659,0.661
			c0.034-0.057,0.067-0.116,0.101-0.173l-0.543-0.545l1.596,0.765c0.528-0.394,0.365-1.029,0.218-1.732L60.414,6.61l-2.267,6.961
			c-0.096,0.295-0.198,0.596-0.349,0.848c-0.151,0.251-0.35,0.453-0.637,0.562c0.168,0.009,0.333,0.017,0.501,0.03
			c0.143,0.414,0.031,0.587-0.141,0.72l-0.094-0.094c-0.003,0.057-0.005,0.111-0.008,0.165c-0.02,0.013-0.04,0.026-0.06,0.04
			l0.056,0.056c-0.003,0.067-0.006,0.133-0.01,0.199l-0.168-0.169c-0.109,0.085-0.203,0.191-0.24,0.362
			c-0.046-0.087-0.092-0.163-0.137-0.23c-0.023-0.161-0.011-0.33,0.01-0.5l-0.38-0.381c0.035,0.2,0.073,0.394,0.113,0.585
			c-0.209-0.184-0.42-0.256-0.646-0.41c0.297,0.443-0.733,0.67-0.044,1.987c-0.307-0.122-0.615-0.242-0.926-0.36
			c-0.243,0.118-0.346,0.348-0.377,0.63c-0.032,0.282,0.008,0.615,0.052,0.949c0.087,0.667,0.201,1.345-0.207,1.643
			c-0.236-0.88-0.84-0.926-0.687-1.932c-0.238,0.267-0.523,0.407-0.243,0.816c-0.196-0.104-0.221,0.282-0.263,0.66
			c-0.044,0.377-0.112,0.738-0.414,0.594c0.088,0.369,0.497,1.004,0.219,1.272c-0.067-0.048-0.128-0.139-0.166-0.204
			c0.121,0.303-0.081,0.825,0.544,1.146c-0.497-0.228-0.86-0.18-1.141,0.016c-0.282,0.196-0.495,0.52-0.686,0.864
			c-0.192,0.342-0.38,0.681-0.619,0.907c-0.24,0.226-0.544,0.327-0.985,0.182c-0.015,0.045-0.032,0.092-0.047,0.138
			c-0.049-0.069-0.103-0.137-0.151-0.206l-3.387-4.848l-0.62,2.406c-0.045,0.175-0.1,0.319-0.211,0.336l-0.254-0.53
			c-0.685,0.903,0.031,2.169-0.858,2.876l0.305,0.295c0.018,0.115,0.029,0.211,0.036,0.294l-0.473-0.288
			c-0.033,0.135-0.098,0.31-0.205,0.52c-0.221-0.089-0.442-0.182-0.663-0.276l-0.273-0.355c-0.015,0.069-0.031,0.153-0.048,0.248
			l-0.026-0.016c0.007,0.015,0.014,0.029,0.021,0.044c-0.133,0.721-0.349,2.047-0.702,2.703c-0.235-1.227,0.121-2.309,0.192-3.237
			c-0.305,0.276-0.963,1.061-0.758,1.832c0.05-0.237,0.023-0.69,0.255-0.609c0.207,1.341,0.007,2.288-0.602,2.834
			c-0.559-1.086-0.989-1.089-1.417-0.85c0-0.033,0-0.067-0.001-0.1c-0.003-0.49-0.028-0.973-0.102-1.36
			c-0.036-0.196-0.085-0.363-0.149-0.505c-0.062-0.137-0.143-0.251-0.24-0.338c-0.095-0.085-0.213-0.147-0.351-0.17
			c-0.138-0.023-0.295-0.005-0.483,0.056c0.219-0.327,0.705-0.971,0.861-0.717c0.033-0.545-0.094-1.037-0.27-1.506
			c-0.044-0.116-0.091-0.232-0.142-0.35l-0.152-0.349c-0.051-0.12-0.106-0.227-0.148-0.362l-0.067-0.191l-0.016-0.047l-0.008-0.024
			c-0.003-0.008-0.007-0.013,0-0.034l0.049-0.207c0.032-0.136,0.063-0.271,0.095-0.406l0.046-0.199
			c0.018-0.072,0.044-0.161,0.066-0.24c0.045-0.161,0.089-0.321,0.133-0.48c0.045-0.162,0.082-0.302,0.14-0.496
			c0.053-0.181,0.106-0.362,0.158-0.541c0.026-0.089,0.052-0.179,0.079-0.267c0.027-0.092,0.049-0.169,0.084-0.281
			c0.129-0.417,0.258-0.829,0.392-1.244c0.082-0.245,0.163-0.488,0.244-0.728c0.086-0.25,0.172-0.498,0.256-0.743
			c0.046-0.131,0.092-0.261,0.138-0.39c0.055-0.151,0.109-0.301,0.163-0.451c0.114-0.309,0.228-0.615,0.339-0.917
			c0.125-0.328,0.249-0.652,0.37-0.972c0.154-0.393,0.306-0.78,0.455-1.162c0.165-0.411,0.327-0.815,0.487-1.213
			c0.194-0.472,0.384-0.937,0.571-1.393c0.097-0.103,0.189-0.192,0.275-0.269c0.103-0.119,0.201-0.228,0.294-0.327
			c0.08-0.242,0.126-0.409,0.209-0.677c0.071-0.238,0.126-0.446,0.171-0.632c0.091-0.373,0.139-0.657,0.192-0.947l0.02-0.109
			l0.011-0.055c0.002-0.01,0.003-0.016,0.006-0.03l0.011-0.043c0.032-0.116,0.063-0.233,0.095-0.352
			c0.067-0.241,0.142-0.497,0.234-0.785c0.092-0.289,0.2-0.611,0.335-0.986c0.067-0.188,0.142-0.389,0.224-0.607
			c0.043-0.112,0.086-0.225,0.129-0.339c0.049-0.125,0.097-0.25,0.147-0.377c-0.139,0.07-0.219,0.011-0.235-0.202
			c0.312-0.578,0.769-1.355,1.092-1.946c0.323-0.59,0.504-0.983,0.238-0.757c-0.142,0.195-0.337,0.465-0.575,0.794
			c-0.114,0.157-0.238,0.328-0.371,0.511c-0.117,0.164-0.242,0.339-0.375,0.524c-0.26,0.362-0.536,0.745-0.817,1.127
			c-0.257,0.347-0.531,0.716-0.813,1.097c-0.246,0.331-0.484,0.642-0.705,0.919c-0.111,0.139-0.217,0.269-0.319,0.389l-0.135,0.159
			c-0.041,0.046-0.081,0.091-0.122,0.137c-0.157,0.171-0.291,0.297-0.397,0.368c-0.053,0.035-0.099,0.056-0.138,0.063
			c-0.03-0.003-0.051-0.022-0.065-0.057l0.416-0.711l0.458-0.761l0.959-1.583c-0.085,0.03-0.175,0.073-0.27,0.126
			c-0.047,0.027-0.096,0.056-0.145,0.088c-0.048,0.03-0.105,0.071-0.141,0.092c-0.164,0.104-0.342,0.245-0.529,0.414
			c-0.101,0.093-0.169,0.155-0.253,0.239c-0.081,0.081-0.165,0.168-0.25,0.26c-0.085,0.092-0.173,0.191-0.259,0.292
			c-0.074,0.088-0.15,0.181-0.226,0.278c-0.077,0.097-0.154,0.198-0.233,0.303c-0.04,0.053-0.079,0.106-0.118,0.159
			c-0.038,0.053-0.083,0.112-0.115,0.159c-0.137,0.198-0.278,0.408-0.419,0.626c-0.071,0.111-0.141,0.22-0.211,0.33
			c-0.062,0.105-0.124,0.209-0.186,0.312c-0.125,0.215-0.249,0.428-0.372,0.639l-0.046,0.08l-0.04,0.075l-0.081,0.15
			c-0.053,0.1-0.107,0.2-0.16,0.299l-0.158,0.296c-0.05,0.096-0.108,0.198-0.149,0.285c-0.086,0.173-0.172,0.347-0.259,0.522
			c-0.083,0.167-0.168,0.33-0.228,0.466c-0.06,0.128-0.121,0.257-0.182,0.388c-0.026,0.055-0.053,0.11-0.08,0.166
			c-0.019,0.045-0.039,0.09-0.058,0.135c-0.036,0.083-0.067,0.152-0.091,0.203l-0.002,0.003c0.101-0.27,0.404-1.079,0.904-2.414
			c0.031-0.082,0.064-0.169,0.098-0.259l0.012-0.032l0.006-0.016l0.002-0.011l0.008-0.043c0.005-0.027,0.01-0.055,0.015-0.083
			c0.018-0.109,0.03-0.206,0.037-0.294c0.014-0.175,0.005-0.31-0.019-0.413c-0.097-0.412-0.455-0.308-0.7-0.233l0.19-0.523
			c-0.477,0.436-1,1.074-1.523,1.806c-0.51,0.721-1.026,1.543-1.528,2.389c-0.502,0.847-0.991,1.717-1.46,2.546
			c-0.469,0.829-0.907,1.616-1.337,2.313c-0.1-0.515-0.367-0.605-0.728-0.454c-0.361,0.152-0.814,0.561-1.292,1.024
			c-0.241,0.239-0.486,0.482-0.733,0.726c-0.123,0.118-0.249,0.256-0.374,0.383c-0.125,0.129-0.25,0.254-0.375,0.374
			c-0.249,0.241-0.497,0.46-0.743,0.644c-0.123,0.092-0.245,0.174-0.367,0.246c-0.061,0.036-0.122,0.069-0.183,0.099
			c-0.061,0.036-0.122,0.069-0.182,0.099c0.16,0.021,0.192,0.461,0.16,0.957c-0.033,0.498-0.125,1.047-0.246,1.327
			c-0.107,0.012-0.212,0.191-0.307,0.416c-0.096,0.225-0.181,0.496-0.26,0.703c-0.157,0.413-0.297,0.581-0.488-0.322l0.143-0.139
			c-0.173-0.341-0.352-0.496-0.537-0.524c-0.183-0.019-0.369,0.096-0.552,0.275c-0.368,0.361-0.716,0.974-1.056,1.407
			c0.254,0.681,0.514,1.353,0.78,2.017c-0.678-0.175-1.294,0.262-1.81,0.89c-0.065,0.079-0.128,0.161-0.189,0.246
			c-0.059,0.081-0.132,0.188-0.154,0.225c-0.067,0.106-0.127,0.221-0.183,0.34c-0.112,0.239-0.207,0.498-0.298,0.753
			c-0.045,0.128-0.09,0.254-0.134,0.378c-0.044,0.121-0.088,0.238-0.134,0.349c-0.093,0.222-0.194,0.418-0.315,0.565
			c-0.122,0.147-0.264,0.244-0.44,0.268c-0.176,0.023-0.385-0.031-0.639-0.18c0.077,0.649-0.178,1.024-0.122,1.662
			c-0.156-0.288-0.288-0.572-0.37-0.863c-0.094-0.33-0.12-0.677-0.051-1.063c0.068-0.113,0.133-0.224,0.244-0.355l0.088,0.084
			c0.059-0.37-0.016-0.619-0.148-0.785c0.05-0.265,0.105-0.503,0.141-0.723c0.037-0.221,0.061-0.431,0.066-0.661
			c0.303-0.377,0.403-0.943,0.43-1.513c0.002-0.069,0.008-0.145,0.013-0.223c0.004-0.075,0.008-0.152,0.012-0.228
			c0.007-0.151,0.011-0.299,0.016-0.442c0.005-0.144,0.01-0.283,0.014-0.413c0.009-0.137,0.022-0.274,0.037-0.398
			c-0.432,0.588-0.588,0.547-0.741,0.629c-0.076,0.039-0.15,0.106-0.256,0.284c-0.101,0.17-0.231,0.447-0.413,0.879
			c0.023-0.044,0.04-0.029,0.052,0.039c0.007,0.043,0.011,0.11,0.016,0.191c0.006,0.078,0.01,0.174,0.013,0.286
			c0.02,0.081,0.026,0.196,0.071,0.213c-0.022,0.012-0.048,0.025-0.071,0.035c0,0.115-0.001,0.239-0.001,0.37
			c-0.001,0.132,0.005,0.26,0.007,0.402c0.007,0.279,0.004,0.6,0.019,0.914c-0.21-0.072-0.394-0.154-0.475-0.353
			c-0.04-0.101-0.056-0.229-0.027-0.419c0.03-0.194,0.1-0.442,0.224-0.775c-0.131,0.07-0.264,0.146-0.394,0.224
			c-0.131,0.08-0.258,0.159-0.375,0.234c-0.237,0.153-0.445,0.302-0.579,0.394c0.608-1.174,1.129-2.558,1.621-3.951
			c0.246-0.696,0.483-1.385,0.714-2.018c0.232-0.637,0.458-1.22,0.679-1.682c-0.033-0.274-0.055-0.57-0.068-0.893
			c-0.013-0.321-0.02-0.657-0.029-0.987c-0.127,0.034-0.255,0.069-0.383,0.104c-0.124,0.034-0.253,0.071-0.371,0.112
			c-0.213,0.079-0.431,0.182-0.649,0.334c-0.196,0.149-0.401,0.348-0.615,0.619c-0.11,0.136-0.211,0.289-0.318,0.463
			c-0.107,0.175-0.219,0.371-0.336,0.592c-0.098,0.067-0.028-0.213,0.075-0.56c0.102-0.348,0.25-0.771,0.32-1.02
			c0.036-0.042,0.062-0.065,0.091-0.08c0.029-0.015,0.056-0.024,0.084-0.038c0.056-0.028,0.116-0.08,0.216-0.268
			c-0.263,0.222-0.379,0.03-0.527-0.007c-0.063-0.021-0.131-0.008-0.215,0.092c-0.042,0.05-0.088,0.122-0.139,0.224
			c-0.007,0.014-0.013,0.027-0.02,0.04c-0.008,0.015-0.023,0.037-0.034,0.055c-0.024,0.039-0.047,0.079-0.07,0.121
			c-0.046,0.083-0.089,0.173-0.131,0.269c-0.138-0.145-0.155-0.307-0.115-0.462c0.04-0.156,0.132-0.312,0.21-0.432
			c0.077-0.121,0.136-0.213,0.098-0.248c-0.02-0.018-0.063-0.021-0.137-0.004c-0.074,0.018-0.186,0.048-0.329,0.112
			c0.096-0.167,0.192-0.332,0.293-0.495c-0.372-0.497-0.831-0.439-1.287-0.085c-0.457,0.355-0.916,1.027-1.341,1.759
			c-0.427,0.734-0.817,1.542-1.169,2.029c-0.088,0.12-0.176,0.223-0.262,0.296c-0.087,0.074-0.171,0.115-0.26,0.13
			c-0.088,0.014-0.176-0.011-0.269-0.074c-0.061-0.038-0.123-0.096-0.188-0.17c0.043,0.075,0.066,0.171,0.069,0.363
			c-0.06,0.008-0.121,0.021-0.182,0.04c-0.063,0.022-0.127,0.049-0.192,0.081c-0.129,0.06-0.265,0.157-0.402,0.263
			c-0.275,0.224-0.561,0.538-0.845,0.914c-0.284,0.374-0.564,0.813-0.835,1.26c-0.272,0.446-0.537,0.899-0.798,1.336
			c-0.523,0.878-1.022,1.686-1.596,2.366c-0.144,0.171-0.293,0.334-0.45,0.49c-0.078,0.078-0.159,0.155-0.242,0.23
			c-0.045,0.043-0.075,0.064-0.109,0.088l-0.102,0.071C8,27.447,7.695,27.588,7.351,27.676c-0.685,0.322-0.213,1.044-0.09,1.921
			l-0.765-0.706l0.302,1.615c-0.1,1.625-2.79-0.476-2.564,2.025l0.558,0.416c-0.387,0.31-0.692,1.652-1.159,0.932
			c0.051,0.146,0.369,0.726,0.016,0.593L3.29,34.044L3.147,35.82c-0.828,0.475-1.297-1.869-2.205-0.798
			c-0.178,0.599,0.129,2.504,0.48,2.637c0.143-0.152,0.54-0.169,0.899,0.258L2.217,38.54c0.978,1.367,1.813,2.996,3.233,2.935
			L5.309,40.01l0.657,0.412l-0.38,0.606c0.703,0.27,0.435-0.457,0.315-1.043c0.305,0.28,0.559,0.419,0.755,0.41l-0.504-1.897
			c0.461,0.427,0.584,1.301,1.128,1.138c-0.232-0.884-1.119-0.84-1.047-1.729c0.701,0.266,1.015,0.84,0.889-0.04
			c0.279,0.258,0.394,0.526,0.417,0.798c-0.031-0.687,0.503-1.016,0.095-1.85c0.821,0.391,0.674-1.324,1.624-0.065
			c-0.157-0.399-0.335-1.555-0.152-1.915c0.757,2.032,0.908-1.07,2.051,0.653c-0.746-1.737,0.629-2.095,0.584-3.566
			c0.044,0.12,0.126,0.341,0.097,0.414c0.184-0.128,0.37-0.135,0.557-0.108c0.025,0.004,0.05,0.008,0.075,0.012l0.019,0.003
			c0.005,0.004,0.009,0.008,0.013,0.011l0.025,0.024c0.034,0.032,0.067,0.065,0.1,0.097c0.065,0.066,0.127,0.131,0.18,0.188
			c-0.407-0.581-0.62-0.99-0.749-1.404c-0.131-0.412-0.187-0.818-0.306-1.357c0.206,0.267,0.334,0.534,0.435,0.782
			c0.101,0.249,0.174,0.481,0.249,0.707c0.075,0.227,0.152,0.448,0.252,0.686c0.1,0.24,0.224,0.495,0.379,0.811
			c-0.134-0.279-0.229-0.494-0.297-0.685c-0.068-0.191-0.109-0.356-0.143-0.52c-0.034-0.165-0.062-0.329-0.104-0.515
			c-0.043-0.186-0.1-0.396-0.204-0.639c0.218,0.382,0.267,0.48,0.331,0.623c0.061,0.148,0.134,0.346,0.329,1.024
			c-0.27-1.057-0.266-1.183-0.234-1.211c0.016-0.014,0.039-0.003,0.046-0.082c0.007-0.079-0.002-0.247-0.039-0.635
			c0.09,0.228,0.15,0.488,0.197,0.727c0.046,0.24,0.079,0.458,0.104,0.616c0.025,0.158,0.041,0.257,0.05,0.263
			c0.01,0.005,0.011-0.081,0.018-0.306c0.056,0.36,0.075,0.805,0.1,1.133c0.023,0.331,0.047,0.55,0.047,0.55
			c-0.061-0.85-0.074-1.044-0.077-1.084c-0.043-0.627-0.114-1.377-0.139-1.961c0.041-0.209,0.077-0.237,0.101-0.132
			c0.024,0.103,0.038,0.336,0.05,0.625c0.014,0.41-0.004-0.11,0.063,1.899c0.007-0.295,0.031-0.964,0.082-1.59
			c0.049-0.622,0.124-1.199,0.166-1.214c-0.018,0.379-0.016,0.506-0.064,1.016c0.053-0.501,0.109-0.798,0.163-0.993
			c0.054-0.196,0.104-0.29,0.158-0.401c0.054-0.112,0.111-0.239,0.197-0.528c0.086-0.288,0.201-0.738,0.382-1.508
			c-0.02,0.167-0.045,0.333-0.07,0.492c0.218-1.33,0.445-2.67,0.63-3.663c0.087-0.116,0.251-0.658,0.367-0.947
			c0.114-0.29,0.173-0.325,0.004,0.609c-0.099,0.046-0.262,0.831-0.422,1.465c0.106-0.327,0.217-0.66,0.336-0.993
			c-0.108,0.657-0.195,1.065-0.262,1.329c-0.067,0.265-0.117,0.389-0.164,0.494c-0.094,0.212-0.182,0.349-0.371,1.348
			c0.191-0.554,0.501-1.49,0.813-2.223c0.307-0.73,0.613-1.248,0.642-0.89c-0.193,0.716-0.348,1.154-0.468,1.44
			c-0.121,0.287-0.207,0.432-0.283,0.559c-0.074,0.131-0.136,0.247-0.201,0.474c-0.066,0.228-0.13,0.566-0.238,1.161
			c0.008-0.308,0.002-0.596-0.016-0.862c-0.186,1.037-0.303,1.561-0.361,1.81c-0.059,0.251-0.067,0.235-0.079,0.229
			c-0.011-0.006-0.025-0.001-0.089,0.285c-0.066,0.288-0.176,0.849-0.419,1.996c-0.017,0.175-0.003,0.176,0.038,0.08
			c0.04-0.097,0.106-0.288,0.179-0.481c0.072-0.193,0.15-0.388,0.208-0.483c0.057-0.096,0.095-0.092,0.067,0.118
			c0.043-0.115,0.079-0.214,0.11-0.298c0.039-0.109,0.07-0.198,0.096-0.272c0.098-0.277,0.151-0.43,0.179-0.507
			c0.132-0.378,0.16-0.459,0.325-0.934c0.211-0.608,0.423-1.231,0.7-1.975c0.115-0.256,0.158-0.308,0.151-0.23
			c-0.008,0.079-0.065,0.289-0.154,0.574c-0.179,0.572-0.486,1.441-0.78,2.247c-0.225,0.612-0.428,1.162-0.7,1.901
			c-0.126,0.351-0.098,0.285,0.22-0.42c0.321-0.738,0.785-1.801,1.084-2.415c0.15-0.307,0.26-0.501,0.29-0.494
			c0.031,0.005-0.019,0.212-0.18,0.671c-0.36,0.713-0.719,1.451-1.079,2.215c-0.027,0.124,0.039,0.03,0.146-0.151
			c0.107-0.182,0.257-0.455,0.401-0.712c0.176-0.312,0.344-0.6,0.418-0.668c0.074-0.071,0.054,0.09-0.142,0.601
			c-0.213,0.32-0.305,0.392-0.357,0.421c-0.052,0.029-0.068,0.013-0.132,0.169c-0.213,0.48-0.282,0.638-0.263,0.636
			c0.018-0.003,0.121-0.17,0.252-0.38c0.261-0.422,0.626-1.011,0.631-0.854c-0.319,0.548-0.638,1.087-0.958,1.617
			c0.08,0.044,0.301-0.066,0.536-0.046c0.233,0.01,0.481,0.151,0.591,0.451c-0.151,0.077-0.306,0.143-0.461,0.237
			c-0.155,0.093-0.31,0.214-0.461,0.363c0.133,0.053,0.194,0.191,0.201,0.348c0.005,0.158-0.045,0.335-0.136,0.483
			c-0.044,0.075-0.1,0.142-0.161,0.2c-0.03,0.027-0.063,0.06-0.097,0.074l-0.05,0.009l-0.012,0.002l-0.006,0.001
			c-0.002,0.003-0.005,0.009-0.007,0.014l-0.03,0.059c-0.084,0.155-0.176,0.303-0.265,0.445c-0.097,0.141-0.192,0.276-0.287,0.405
			c0.255,0.263,0.509,0.538,0.761,0.827c-0.034,0.119-0.425,0.059-0.562-0.136c-0.211,0.184-0.078,0.248,0.141,0.317
			c0.219,0.069,0.527,0.134,0.666,0.337c-0.001,0.084-0.036,0.138-0.092,0.166c-0.058,0.028-0.136,0.031-0.219,0.013
			c-0.167-0.036-0.359-0.154-0.462-0.306c0.185,0.457,0.352,1.06,0.405,1.676c-0.088,0.081-0.16,0.233-0.22,0.427l0.234,0.247
			c-0.014,0.246-0.051,0.484-0.108,0.701c-0.087,0.314-0.229,0.584-0.422,0.777l-9.42,9.373l13.799-4.754
			c0.15-0.052,0.309-0.072,0.477-0.056l0.026,0.429c0.412-0.141,0.279-0.784,0.177-1.359c-0.025-0.139-0.047-0.274-0.06-0.397
			l0.567,0.598c0.003-0.285-0.028-0.614-0.071-0.939c0.166-0.116,0.326-0.247,0.479-0.389c0.012-0.011,0.024-0.023,0.035-0.034
			l0.046,0.039c-0.01-0.018-0.02-0.036-0.031-0.054c0.154-0.148,0.299-0.313,0.443-0.479c0.319-0.371,0.621-0.763,0.935-1.115
			c0.316-0.347,0.631-0.679,0.991-0.9c0.359-0.224,0.759-0.347,1.23-0.313c-0.36-0.723,0.035-0.969,0.378-1.26
			c0.342-0.291,0.628-0.629,0.025-1.514c0.649-0.033,0.987,0.083,1.333,0.121c0.173,0.018,0.348,0.016,0.567-0.037
			c0.109-0.027,0.23-0.066,0.366-0.122c0.134-0.058,0.284-0.132,0.454-0.228c0.309-0.276-0.454-1.533-0.292-2.126l0.7,0.83
			c-0.106-0.489-0.218-0.976-0.328-1.462l1.046,0.69l0.098-0.618c-0.152,0.112-0.548-0.033-0.732-0.297
			c0.028-0.251,0.139-0.436,0.292-0.564c0.152-0.128,0.349-0.201,0.555-0.23c0.411-0.058,0.856,0.06,1.041,0.264l0.025-0.136
			l0.013-0.068l0.006-0.034l0.003-0.017l0.002-0.008c0-0.001-0.002-0.002-0.002-0.003c-0.017-0.041-0.032-0.084-0.047-0.128
			c-0.029-0.088-0.055-0.181-0.078-0.279c-0.046-0.196-0.078-0.411-0.097-0.645c0.156,0.336,0.212,0.539,0.285,0.742
			c-0.047-0.133-0.047-0.179-0.027-0.162c0.03,0.023,0.105,0.163,0.18,0.307c0.075,0.144,0.151,0.292,0.181,0.337
			c0.03,0.043,0.009-0.011-0.085-0.307c-0.061-0.122-0.133-0.293-0.2-0.466c-0.067-0.173-0.126-0.35-0.173-0.47
			c0.371,0.58,0.431,0.504,0.479-0.026c0.049,0.351,0.102,0.698,0.158,1.039c0.066,0.068,0.086-0.107,0.145-0.371
			c0.028-0.131,0.064-0.28,0.106-0.409c0.041-0.13,0.088-0.241,0.129-0.286c0.008-0.302,0.057-1.051,0.125-1.777
			c0.067-0.725,0.167-1.444,0.247-1.649c-0.063,0.718-0.132,1.445-0.209,2.18c0.108-0.729,0.114-0.917,0.122-1.142
			c0.005-0.114,0.012-0.238,0.04-0.452c0.028-0.214,0.075-0.516,0.172-1c0.075,0.021,0.01,0.65-0.095,1.375
			c-0.105,0.725-0.235,1.531-0.301,1.926c0.064-0.3,0.138-0.611,0.222-0.934c-0.104,0.701-0.186,1.102-0.319,1.997
			c0.12-0.744,0.069-0.197-0.001,0.26C30.023,32.16,29.99,32.36,30,32.33c0.01-0.03,0.066-0.29,0.221-0.995l-0.159,0.764
			c0.034-0.031,0.116-0.287,0.226-0.59c0.107-0.3,0.24-0.642,0.329-0.786c0.423-1.321,0.608-1.858,0.792-2.35
			c0.184-0.493,0.36-0.935,0.791-2.098c-0.012,0.153-0.057,0.39-0.119,0.66c-0.031,0.135-0.065,0.278-0.102,0.421l-0.028,0.108
			l-0.014,0.054l-0.007,0.027l-0.015,0.039c-0.038,0.102-0.077,0.205-0.116,0.308c-0.301,0.802-0.513,1.398-0.496,1.436
			c0.227-0.531,0.433-1.021,0.65-1.581c0.218-0.553,0.451-1.175,0.731-1.816c-0.223,0.57-0.386,1.018-0.515,1.381
			c-0.129,0.363-0.225,0.644-0.309,0.893c-0.085,0.249-0.162,0.465-0.257,0.702c-0.095,0.238-0.208,0.494-0.366,0.839
			c0.047,0.006,0.089,0.023,0.153,0.003c0.065-0.018,0.15-0.072,0.299-0.168c0.132-0.15,0.323-0.318,0.609-0.484
			c0.374-0.718,0.52-1.133,0.85-1.62c0.093-0.038,0.011,0.239-0.153,0.596c-0.165,0.359-0.413,0.798-0.644,1.147l-0.105,0.12
			c0.39-0.358,0.434-0.062,0.277,0.396c-0.154,0.465-0.507,1.086-0.849,1.568c-0.343,0.49-0.665,0.847-0.782,0.999
			c-0.112,0.146-0.047,0.121,0.291-0.035c0.257-0.074,0.486-0.06,0.715,0.056c-0.097,0.186-0.228,0.178-0.407,0.203
			c-0.089,0.012-0.189,0.031-0.298,0.071c-0.109,0.039-0.23,0.098-0.354,0.173c0.301-0.03,0.429,0.076,0.487,0.188
			c0.007,0.014,0.013,0.029,0.018,0.043c0.002,0.004,0.006,0.024,0.008,0.038l0.007,0.046c0.01,0.078,0.019,0.155,0.028,0.232
			c0.015,0.116,0.026,0.225,0.045,0.344c0.064,0.462,0.162,0.948,0.295,1.424c0.133,0.479,0.312,0.949,0.524,1.384
			c0.108,0.212,0.222,0.425,0.345,0.614c0.061,0.095,0.125,0.194,0.189,0.28c0.064,0.087,0.131,0.173,0.198,0.256
			c0.138,0.168,0.267,0.3,0.425,0.449c0.176,0.163,0.364,0.31,0.57,0.439c0.206,0.129,0.429,0.24,0.672,0.326
			c0.244,0.085,0.511,0.145,0.795,0.161c0.19,0.243,0.442,0.459,0.75,0.618c0.152,0.08,0.321,0.144,0.498,0.191
			c0.179,0.045,0.367,0.073,0.556,0.08c0.378,0.015,0.749-0.051,1.069-0.158c0.324-0.107,0.591-0.248,0.802-0.377
			c0.055-0.034,0.099-0.062,0.148-0.095c0.041-0.028,0.082-0.056,0.123-0.085c0.059-0.044,0.119-0.088,0.18-0.133
			c0.081-0.059,0.159-0.129,0.235-0.206c0.152-0.154,0.295-0.339,0.436-0.532c0.564-0.772,1.096-1.683,2.015-1.362l-0.384-0.517
			c-0.078-0.789,0.484,0.044,0.74,0.003c-0.281-0.417-0.561-0.259-0.588-0.712c0.838-1.33,2.029-2.14,3.313-2.805
			c0.023,0.047,0.045,0.094,0.069,0.14l4.815,9.329l1.572-7.9c0.048-0.241,0.08-0.495,0.093-0.768
			c0.132,0.29,0.378,0.522,0.283,0.702c0.2,0.039,0.348-0.029,0.45-0.161c0.101-0.133,0.156-0.33,0.178-0.545
			c0.039-0.431-0.077-0.952-0.314-1.192c0.211-0.236,0.467,0.361,0.807,0.43c0.28-0.017,0.229-0.441,0.198-0.819
			c-0.033-0.379-0.038-0.702,0.305-0.501c0.071,0.041,0.101,0.15,0.114,0.255c0.018-0.212,0.155-0.423,0.238-0.628
			c0.103-0.258,0.134-0.501-0.265-0.745c0.306-0.131,0.441-0.432,0.555-0.74c0.051,0.047,0.12,0.076,0.207,0.07
			c0.142-0.009,0.331-0.108,0.568-0.343c-0.094,0.27-0.213,0.504-0.369,0.676c-0.156,0.171-0.348,0.282-0.585,0.279
			c0.088,0.689,0.339,0.67,0.544,0.675c0.204,0.004,0.363,0.021,0.272,0.72c-0.345,0.383-0.443,0.243-0.828,0.521
			c0.289,0.025,0.581,0.007,0.75,0.161c0.169,0.158,0.212,0.472-0.004,1.25c-0.186,0.191-0.445,0.628-0.453,0.421
			c-0.029,0.601,0.107,0.917,0.283,1.127c0.114-0.05,0.227-0.099,0.339-0.149c0.055-0.024,0.105-0.041,0.161-0.067
			c0.079-0.057,0.159-0.114,0.238-0.172c0.314-0.226,0.612-0.435,0.886-0.604c0.273-0.17,0.527-0.296,0.744-0.368
			c0.218-0.072,0.408-0.083,0.575-0.01c-1.501,2.177,0.169,0.516-0.572,2.235c0.385-0.267,0.76-0.532,1.125-0.796
			c-0.001-0.244,0.006-0.489,0.018-0.735c0.358-0.103,0.828-0.518,1.226-0.872c0.404-0.351,0.743-0.629,0.951-0.453
			c-0.24,0.297-0.49,0.594-0.749,0.891c0.244-0.134,0.484-0.259,0.725-0.399l0.712-0.42c-0.2-0.119-0.386-0.239-0.56-0.361
			c0.469-0.579,0.584-1.113,0.695-1.489c0.11-0.376,0.187-0.591,0.512-0.527c-0.098,0.123,0.044,0.063,0.227,0.08
			c0.183,0.012,0.409,0.087,0.508,0.502c0,0-0.002,0.001-0.003,0.006c0.195-0.343,0.379-0.69,0.56-0.927
			c0.182-0.242,0.357-0.378,0.57-0.297c0.05,0.227,0.021,0.686-0.022,1.128c-0.042,0.442-0.096,0.868-0.055,1.016
			c0.1-0.385,0.249-0.653,0.423-0.864c0.087-0.107,0.18-0.195,0.277-0.284c0.097-0.091,0.197-0.175,0.297-0.261
			c0.2-0.17,0.401-0.344,0.561-0.572c0.142-0.202,0.25-0.448,0.291-0.773c-0.025,0.41,0.084,1.059,0.156,1.174
			c0.033-0.396,0.055-0.785,0.067-1.167c0.361,0.125,0.459,0.237,0.564,0.863c0.524-0.234,0.299-0.616,0.134-0.948
			c-0.083-0.166-0.152-0.318-0.125-0.422c0.029-0.106,0.15-0.154,0.474-0.149c-0.053,0.129,0.04,0.237-0.085,0.494
			c0.152-0.043,0.298-0.109,0.436-0.191c0.034-0.021,0.068-0.042,0.102-0.065l0.087-0.061c0.051-0.037,0.1-0.078,0.147-0.12
			c0.192-0.169,0.36-0.379,0.525-0.588c0.165-0.208,0.329-0.411,0.511-0.571c0.18-0.163,0.378-0.283,0.616-0.32
			c0.834,1.103-0.509,0.812,0.258,1.695c0.246-0.267,0.468-0.601,0.673-0.966c0.204-0.366,0.397-0.755,0.593-1.129
			c0.195-0.376,0.396-0.733,0.62-1.03c0.223-0.299,0.47-0.537,0.761-0.672l-0.26,0.018c-0.383-0.939-0.084-0.875,0.322-0.736
			c0.394,0.135,0.893,0.341,0.951-0.229c-0.008,0.283,0.347,1.053,0.282,0.842c0.832-0.3,1.178-1.615,1.914-3.051l0.11,0.558
			c0.307,0.028,0.602-0.142,0.888-0.34c0.285-0.199,0.561-0.427,0.831-0.513c-0.111-0.557,0.174-0.699-0.325-1.218
			c1.35,0.694,1.798-0.209,2.197-1.14c0.399-0.934,0.743-1.906,1.907-1.376c-0.137,0.13-0.12,0.685-0.008,0.588l0.769-1.303
			c-0.494-0.68-0.381-0.337-0.912-0.734c-0.12-0.558-0.032-1.155,0.214-1.376c-0.17,0.898,0.671,1.201,1.096,1.445
			c-0.16-0.201-0.234-0.513-0.38-0.732c1.258,0.866-0.75-1.585,0.453-1.328l0.182,0.427c0.152-0.441,0.105-1.181,0.451-1.327
			c0.601,0.758-0.055,0.659,0.324,1.387c0.373-0.413-0.129-2.356,0.713-1.825c-0.034,0.396-0.275,0.623-0.31,1.017
			c0.961,0.655,0.863,0.354,1.245,0.247l-0.042,0.003l0.934-0.161l-0.327-0.117c-0.768-2.706,0.782-1.347,0.62-3.436
			c0.138,1.993,0.348,0.905,0.851,1.926c0.325,0.113,0.757,0.175,0.839,0.518c-0.13-1.081,0.88,0.128,0.673-1.437
			c0.199,0.295,0.356-0.284,0.733,0.569c0.271-0.63-0.408-0.455-0.597-0.881c0.022-1.66,2.229-0.091,2.296-2.412
			c0.436-1.339-0.025-2.529,0.397-3.737c0.532,0.269,0.454,1.327,0.454,1.327c0.659,0.088,0.907-0.277,1.072-0.986
			c0.082,0.344,0.292,0.501,0.608,0.745c0.251-0.364-0.456-1.326,0.202-1.237c0.134,0.412,0.368,1.051,0.425,1.535
			c0.186-0.619,0.197-1.53,0.397-2.156c0.41,0.452,0.257,1.033,0.334,1.51c0.267-0.632,0.773-1.496,0.402-2.476L94.596,3.965z
			 M62.051,21.288c0.014-0.042,0.026-0.085,0.039-0.127c0.027,0.082,0.055,0.162,0.083,0.239
			C62.132,21.364,62.091,21.325,62.051,21.288z M21.457,24.346c0.099,0.419-0.066,0.769-0.233,1.002
			c-0.007-0.233-0.027-0.495-0.074-0.807c-0.031,0.019-0.064,0.026-0.098,0.049C21.206,24.468,21.353,24.359,21.457,24.346z
			 M19.41,39.61c-0.013,0.022-0.033,0.043-0.061,0.064C19.372,39.652,19.392,39.631,19.41,39.61z M15.854,31.576
			c-0.008,0.005-0.014,0.009-0.017,0.011c-0.024-0.085-0.044-0.155-0.059-0.199C15.793,31.427,15.812,31.481,15.854,31.576z
			 M15.922,32.097c0.288-0.162,0.588-0.255,0.576-0.125c-0.196,0.017-0.356,0.351-0.601,0.556
			C15.93,32.402,15.933,32.251,15.922,32.097z M20.534,32.533c0.005,0,0.011-0.002,0.016-0.002
			C20.545,32.541,20.539,32.542,20.534,32.533z M36.406,32.778c0.001,0,0.002-0.001,0.004-0.001
			C36.409,32.777,36.407,32.778,36.406,32.778L36.406,32.778z M36.557,32.736c0.002,0,0.004-0.001,0.005-0.001
			C36.561,32.735,36.559,32.736,36.557,32.736C36.557,32.736,36.557,32.736,36.557,32.736z M36.7,32.714c0.002,0,0.003,0,0.004,0
			c-0.019,0.002-0.039,0.005-0.058,0.008C36.664,32.718,36.682,32.716,36.7,32.714z M36.771,32.707L36.771,32.707L36.771,32.707
			C36.771,32.707,36.771,32.707,36.771,32.707z M35.282,31.892C35.282,31.892,35.282,31.892,35.282,31.892
			C35.28,31.888,35.28,31.888,35.282,31.892z M35.997,33.456L35.997,33.456c0.001,0.002,0.001,0.003,0.001,0.004
			C36.003,33.474,36.002,33.473,35.997,33.456z M36.091,33.815C36.091,33.815,36.091,33.815,36.091,33.815L36.091,33.815l0-0.001
			l0-0.001c0,0,0,0,0,0l0-0.001l0,0l0,0.001c0,0,0,0,0,0c0,0,0-0.001,0-0.001l0,0c0,0,0,0.001,0,0.001c0,0,0,0,0,0L36.091,33.815
			c0,0,0-0.001,0-0.002C36.091,33.814,36.091,33.815,36.091,33.815l0,0.002v0L36.091,33.815
			C36.091,33.815,36.091,33.815,36.091,33.815L36.091,33.815L36.091,33.815L36.091,33.815z M48.491,26.341
			c0.555,0.122,0.554,0.253,0.761,0.207c-0.076,0.174-0.152,0.338-0.228,0.485c-0.117-0.189-0.234-0.249-0.113-0.317
			c-0.083,0.036-0.142,0.081-0.185,0.132C48.642,26.674,48.564,26.503,48.491,26.341z M49.213,28.786
			c-0.002,0.01-0.005,0.02-0.007,0.029l-0.198-0.121c-0.002-0.013-0.005-0.025-0.007-0.038L49.213,28.786z M49.575,24.721
			c0.04,0.228,0.083,0.456,0.128,0.683c-0.055,0.149-0.11,0.297-0.167,0.441c-0.054,0.143-0.109,0.283-0.164,0.419
			c-0.118,0.004-0.258,0.029-0.402,0.044c-0.316,0.032-0.654,0.014-0.824-0.41C48.505,25.548,48.778,24.883,49.575,24.721z
			 M43.562,25.341l0.532,0.324c-0.002,0.009-0.004,0.019-0.006,0.03l-0.477-0.291L43.562,25.341z M55.267,26.215
			c-0.001,0-0.002,0-0.003,0.001c0.001-0.001,0.002-0.002,0.003-0.002C55.266,26.214,55.267,26.215,55.267,26.215z M56.535,27.123
			c-0.196,0.258-0.307,0.55-0.431,0.846c-0.124,0.297-0.263,0.603-0.52,0.901c-0.013,0.015-0.026,0.029-0.039,0.044
			c-0.168-0.061-0.303-0.076-0.418-0.064c0.032,0.086,0.052,0.163,0.114,0.268l0.115-0.017c-0.215,0.192-0.494,0.373-0.863,0.51
			c0.003-0.008,0.006-0.017,0.009-0.025c0.134-0.362,0.265-0.704,0.625-0.736c-0.235-0.584,0.042-0.757,0.259-0.941
			c0.218-0.185,0.387-0.375-0.057-1.041c0.483,0.655,0.88,0.638,1.138,0.341c0.178-0.197,0.291-0.53,0.323-0.878
			c0.233,0.125,0.44,0.209,0.617,0.15C56.983,26.674,56.72,26.878,56.535,27.123z"/>
		<path style="fill:#08A1FF;" d="M60.832,22.999c-0.076,0.002-0.132-0.006-0.172-0.02C60.715,23.031,60.704,23.105,60.832,22.999z"
			/>
		<path style="fill:#08A1FF;" d="M63.351,22.669c0.022-0.025,0.046-0.054,0.075-0.09C63.401,22.611,63.376,22.639,63.351,22.669z"/>
		<path style="fill:#08A1FF;" d="M60.61,22.95c0.012,0.011,0.029,0.021,0.05,0.029C60.648,22.967,60.631,22.957,60.61,22.95z"/>
		<path style="fill:#08A1FF;" d="M62.672,23.255c-0.016-0.001-0.048,0.017-0.089,0.049C62.592,23.312,62.621,23.296,62.672,23.255z"
			/>
		<path style="fill:#08A1FF;" d="M20.42,24.644c-0.016-0.048-0.049-0.044-0.052-0.125c-0.079,0.191-0.146,0.359-0.201,0.513
			c0.087-0.048,0.177-0.097,0.254-0.14C20.42,24.809,20.422,24.719,20.42,24.644z"/>
		<path style="fill:#08A1FF;" d="M74.247,19.185c0.026,0.013,0.052,0.029,0.079,0.052c-0.015-0.017-0.028-0.034-0.045-0.051
			L74.247,19.185z"/>
		<path style="fill:#08A1FF;" d="M74.327,19.237c0.011,0.012,0.023,0.025,0.039,0.038C74.352,19.259,74.34,19.247,74.327,19.237z"/>
		<polygon style="fill:#08A1FF;" points="27.24,34.947 27.078,34.755 27.137,35.039 		"/>
		<path style="fill:#08A1FF;" d="M82.179,17.205c-0.036-0.056-0.116-0.108-0.207-0.162C82.027,17.113,82.096,17.176,82.179,17.205z"
			/>
		<path style="fill:#08A1FF;" d="M84.649,14.91l0.544-0.009C84.933,14.861,84.77,14.878,84.649,14.91z"/>
		<path style="fill:#08A1FF;" d="M86.867,13.549c-0.065-0.182-0.126-0.308-0.182-0.424c-0.003-0.001-0.004,0-0.007-0.002
			L86.867,13.549z"/>
		<path style="fill:#08A1FF;" d="M62.581,31.613c-0.17,0.295-0.348,0.588-0.526,0.804C62.283,32.4,62.477,32.334,62.581,31.613z"/>
		<path style="fill:#08A1FF;" d="M61.422,32.665c0.184,0.158,0.41,0.024,0.632-0.248C61.866,32.433,61.667,32.387,61.422,32.665z"/>
		<path style="fill:#08A1FF;" d="M95.663,5.971c-0.036-0.058-0.058-0.112-0.072-0.155l-0.042,0.207L95.663,5.971z"/>
		<path style="fill:#08A1FF;" d="M95.59,5.815l0.042-0.205C95.585,5.656,95.548,5.702,95.59,5.815z"/>
		<path style="fill:#08A1FF;" d="M95.633,5.611c0.077-0.069,0.186-0.13,0.088-0.434L95.633,5.611z"/>
		<path style="fill:#08A1FF;" d="M92.896,8.394c-0.023-0.082-0.073-0.199-0.159-0.355L92.896,8.394z"/>
		<path style="fill:#08A1FF;" d="M92.009,8.872c0.229-0.102,0.869,0.255,1.012-0.196l-0.125-0.283
			C93.053,8.995,91.87,8.154,92.009,8.872z"/>
		<path style="fill:#08A1FF;" d="M86.427,7.895l0.805-0.351c-0.314-0.242-0.732-0.57-0.482-0.932
			C85.331,6.343,87.366,7.232,86.427,7.895z"/>
		<path style="fill:#08A1FF;" d="M84.104,9.279c0.261-0.489-0.292-0.504-0.385-0.719C83.676,9.086,83.667,9.216,84.104,9.279z"/>
		<path style="fill:#08A1FF;" d="M68.782,21.546c-0.216,0.347,0.165,0.333,0.397,0.882L68.782,21.546z"/>
		<polygon style="fill:#08A1FF;" points="68.361,29.206 68.909,29.533 68.674,28.631 		"/>
		<path style="fill:#08A1FF;" d="M64.39,23.576c-0.013,0.147-0.036,0.301-0.069,0.461c0.027-0.102,0.049-0.201,0.068-0.297
			C64.39,23.685,64.391,23.63,64.39,23.576z"/>
		<path style="fill:#08A1FF;" d="M50.588,23.719c0.013-0.194-0.168-0.539-0.362-0.76c-0.194-0.22-0.4-0.312-0.423,0.015
			L50.588,23.719z"/>
		<path style="fill:#08A1FF;" d="M43.46,24.273c0.278-0.157,0.744,0.009,0.79-0.236C43.843,23.644,43.357,23.604,43.46,24.273z"/>
		<path style="fill:#08A1FF;" d="M24.343,23.337c-0.148,0.392-0.29,0.775-0.427,1.15l0.311-0.348
			C24.262,23.877,24.301,23.61,24.343,23.337z"/>
	</g>
	<g>
		<g>
			<path style="fill:#FFFFFF;" d="M22.315,16.578c0.507,0,1.673,0.042,3.496,0.125v0.039c-1.368,0.353-2.051,0.953-2.051,1.801
				c-0.051,0.61-0.077,1.804-0.077,3.583v0.848c0.045,8.752,0.116,13.128,0.212,13.128c0.103,0.263,0.308,0.395,0.616,0.395
				c0.173,0.006,0.372,0.01,0.597,0.01h0.116c0.026,0.006,0.039,0.026,0.039,0.058v0.202c0,0.026-0.013,0.039-0.039,0.039h-2.504
				c-0.79,0-1.319-0.385-1.589-1.156l-0.106-0.433c-0.006-1.425-0.01-2.517-0.01-3.275v-3.342h-2.437l-0.048,0.019
				c0.019,0.604,0.029,1.063,0.029,1.377v1.04c0,0.931,0.006,2.299,0.019,4.103c0.263,0.912,0.677,1.368,1.242,1.368
				c0.276,0.026,0.414,0.058,0.414,0.096v0.183c0,0.032-0.013,0.048-0.039,0.048h-5.028c-0.032,0-0.048-0.016-0.048-0.048V36.62
				l0.636-0.462c0.077-0.032,0.209-0.148,0.395-0.347V24.379l-1.242,0.982c-0.064-0.09-0.1-0.148-0.106-0.173
				c2.363-3.409,3.955-5.811,4.777-7.204c0.449-0.636,1.024-1.063,1.724-1.281C21.625,16.62,21.962,16.578,22.315,16.578z
				 M15.775,25.756h0.048v0.385c0,0.032-0.016,0.048-0.048,0.048h-0.058c0-0.045-0.032-0.106-0.096-0.183
				C15.724,25.866,15.775,25.782,15.775,25.756z M16.44,37.15h3.573c0.282,0.141,0.584,0.212,0.905,0.212
				c0.109,0.013,0.164,0.032,0.164,0.058v0.212c0,0.026-0.019,0.039-0.058,0.039h-5.018c-0.026,0-0.039-0.013-0.039-0.039v-0.183
				C16.205,37.25,16.363,37.15,16.44,37.15z M18.53,24.369v3.814h2.485v-0.019c0-2.356,0.003-5.943,0.01-10.758
				c-1.631,1.817-2.446,2.992-2.446,3.525C18.546,21.496,18.53,22.642,18.53,24.369z M20.687,18.494h0.029v1.069
				c-0.88,1.072-1.319,1.824-1.319,2.254c-0.013,0.835-0.019,1.509-0.019,2.023v3.978c0,0.032-0.016,0.048-0.048,0.048h-0.405
				c-0.051,0-0.077-0.096-0.077-0.289v-1.57c0-1.175,0.01-2.761,0.029-4.758c0.488-0.745,0.979-1.525,1.474-2.34
				C20.562,18.632,20.674,18.494,20.687,18.494z M18.925,28.915h0.405c0.032,0,0.048,0.029,0.048,0.087h1.271
				c0.026,0,0.039,0.016,0.039,0.048v0.347c0,0.026-0.013,0.039-0.039,0.039h-1.271c0.013,2.312,0.019,4.087,0.019,5.326
				c0,0.238,0.01,0.639,0.029,1.204c0.013,0.026,0.019,0.048,0.019,0.067h-0.019c-0.27-0.276-0.437-0.594-0.501-0.954
				c-0.019-0.026-0.029-0.058-0.029-0.096c-0.013-2.562-0.019-4.523-0.019-5.885v-0.135C18.877,28.931,18.893,28.915,18.925,28.915z
				 M22.315,37.102h0.019c0.263,0.019,0.398,0.035,0.405,0.048c0.289-0.013,0.523-0.019,0.703-0.019h1.387
				c0.103,0.116,0.315,0.173,0.636,0.173c0,0.013,0.116,0.019,0.347,0.019h0.27v0.308H24.54c-0.263,0-0.604,0-1.021,0
				c-0.405,0-0.799-0.161-1.185-0.482L22.315,37.102z M24.877,17.445c1.008,0.045,1.599,0.067,1.772,0.067v0.048
				c-0.636,0.135-1.21,0.44-1.724,0.915c-0.238,0.161-0.356,0.713-0.356,1.657c-0.032,0.334-0.055,1.535-0.067,3.602
				c0.026,4.527,0.077,8.668,0.154,12.424h-0.048c-0.289,0-0.433-0.112-0.433-0.337c-0.122-4.096-0.183-8.447-0.183-13.05V22.27
				c0-2.819,0.067-4.228,0.202-4.228C24.501,17.676,24.729,17.477,24.877,17.445z"/>
			<path style="fill:#FFFFFF;" d="M33.612,16.741c1.881,2.337,2.822,4.559,2.822,6.665v0.019c0,0.032,0.006,0.064,0.019,0.096
				c-0.084,0.764-0.523,1.714-1.319,2.851c-1.008,1.22-2.116,2.308-3.323,3.265c2.421-0.205,4.045-0.308,4.873-0.308
				c0,0.013,0.006,0.019,0.019,0.019c-0.244,0.591-0.366,0.925-0.366,1.002v11.432c0,0.411,0.222,0.693,0.665,0.848
				c0.167,0.039,0.302,0.058,0.405,0.058h0.077c0.539,0,0.957-0.286,1.252-0.857c0.327-0.578,0.491-1.278,0.491-2.1
				c0-0.148-0.032-0.533-0.096-1.156h0.973l0.029,0.029c0.019,0.379,0.029,0.68,0.029,0.905v0.328c0,1.599-0.591,2.636-1.772,3.111
				c-0.238,0.122-0.52,0.183-0.848,0.183h-0.318c-1.445,0-2.392-0.552-2.841-1.657c-0.218-0.443-0.327-0.693-0.327-0.751V29.84
				c-0.533,0.032-1.4,0.064-2.6,0.096v4.662c-0.276,1.027-0.681,1.724-1.214,2.09c-0.405,0.289-0.861,0.433-1.368,0.433
				c-0.533,0-1.185-0.157-1.955-0.472v-0.048c0.385-0.039,0.87-0.206,1.454-0.501c0.276-0.225,0.414-0.36,0.414-0.405v-4.623h-0.019
				c-0.629,0.353-1.04,0.53-1.233,0.53H27.42c-0.738-0.09-1.108-0.449-1.108-1.079v-0.385c0-0.482,0.164-0.764,0.491-0.848h0.048
				c0.122,0,0.388,0.084,0.799,0.25h0.019v0.077c-0.469,0.392-0.703,0.722-0.703,0.992v0.144c0,0.199,0.196,0.334,0.588,0.405
				c0.282,0,0.693-0.151,1.233-0.453V20.344l-1.522-0.125V20.18C30.964,18.132,33.079,16.986,33.612,16.741z M27.631,30.119h0.067
				c0.173,0,0.43,0.09,0.771,0.27v0.048c0,0.116-0.279,0.244-0.838,0.385h-0.096c-0.167-0.019-0.25-0.058-0.25-0.116v-0.067
				C27.285,30.511,27.4,30.338,27.631,30.119z M27.969,31.843c0.128,0.071,0.295,0.122,0.501,0.154v0.376
				c0,0.019-0.032,0.042-0.096,0.067c-0.488,0-0.844-0.17-1.069-0.511l0.048-0.01h0.202C27.664,31.92,27.801,31.895,27.969,31.843z
				 M32.909,30.206v0.029c0,0.006-0.084,0.08-0.25,0.222c0.603-0.045,0.953-0.077,1.05-0.096l0.019,0.048v0.27
				c0,0.045-0.023,0.067-0.067,0.067c-0.488,0-0.953,0.01-1.397,0.029v4.71c-0.212,0.88-0.581,1.538-1.108,1.974
				c-0.437,0.321-0.902,0.482-1.397,0.482h-0.067c-0.572,0-1.223-0.161-1.955-0.482V37.42c0.051,0,0.157-0.026,0.318-0.077
				c0.257,0.064,0.53,0.096,0.819,0.096c1.374,0,2.321-0.854,2.841-2.562c0.039-0.096,0.058-0.167,0.058-0.212v-4.373l0.019-0.048
				C32.319,30.238,32.691,30.225,32.909,30.206z M28.44,20.844h0.029v0.202l-0.029,0.029l-0.222-0.01h-0.135v-0.019
				C28.084,21.002,28.203,20.934,28.44,20.844z M31.455,18.34v10.508c1.971-1.644,2.957-3.268,2.957-4.873v-0.087
				c0-0.809-0.247-1.814-0.742-3.015C33.15,19.801,32.412,18.957,31.455,18.34z M31.773,18.986h0.019
				c0.135,0.096,0.292,0.244,0.472,0.443v8.206c0,0.019-0.157,0.18-0.472,0.482l-0.019-0.048V18.986z M35.905,19.698
				c0.905,1.541,1.358,3.082,1.358,4.623c-0.071,0.719-0.401,1.535-0.992,2.446c-0.302,0.462-0.896,1.146-1.782,2.051
				c-0.186,0.212-0.331,0.318-0.433,0.318l-1.214,0.087v-0.019c1.156-1.046,1.958-1.862,2.408-2.446
				c0.867-1.149,1.364-2.177,1.493-3.082l0.029-0.135c0-1.181-0.289-2.456-0.867-3.824V19.698z M40.528,39.394h0.405
				c0.039,0.006,0.058,0.022,0.058,0.048c0.006,0.571,0.01,0.973,0.01,1.204c0,1.586-0.581,2.626-1.743,3.121
				c-0.315,0.109-0.507,0.164-0.578,0.164h-0.202c-0.122,0-0.218,0.013-0.289,0.039c-1.021,0-1.772-0.225-2.254-0.674h0.019
				c0.405,0.103,0.79,0.154,1.156,0.154h0.607c0.295,0.045,0.488,0.067,0.578,0.067h0.029c0.597,0,1.05-0.372,1.358-1.117
				c0.533-0.572,0.799-1.387,0.799-2.446v-0.511C40.486,39.41,40.502,39.394,40.528,39.394z M37.321,30.139h0.183l0.039,0.029
				c-0.244,0.584-0.366,0.899-0.366,0.944v11.182c0,0.026-0.01,0.039-0.029,0.039c-0.308-0.103-0.462-0.244-0.462-0.424
				c-0.019,0-0.029-0.048-0.029-0.144V30.408c0-0.16,0.077-0.241,0.231-0.241C36.97,30.148,37.115,30.139,37.321,30.139z"/>
			<path style="fill:#FFFFFF;" d="M47.78,16.568l0.019,0.029V22.8h0.019c1.201-2.491,1.984-4.084,2.35-4.777
				c0.764-0.822,1.4-1.233,1.907-1.233h0.761c0.353,0,0.921-0.006,1.705-0.019v0.039l-1.637,0.867v18.145
				c0,0.019,0.343,0.347,1.031,0.982l-0.039,0.029H50.4c-0.039,0-0.058-0.016-0.058-0.048V19.361h-0.019
				c-0.315,0.186-0.639,0.533-0.973,1.04c-0.514,0.893-1.031,1.939-1.551,3.14v12.27l0.78,0.905v0.019
				c-1.271,0.077-2.154,0.116-2.649,0.116h-0.347c-0.071,0-0.18-0.006-0.327-0.019c0.013-0.751,0.019-1.336,0.019-1.753v-2.995
				c0-5.477-0.019-9.705-0.058-12.684c-0.122-0.809-0.363-1.214-0.722-1.214c-0.417,0-0.857,0.44-1.319,1.319
				c-0.045,0.064-0.096,0.218-0.154,0.462v13.465c0,0.861-0.295,1.653-0.886,2.379c-0.449,0.405-0.861,0.607-1.233,0.607
				l-1.57,0.164v-0.048c0.61-0.475,0.966-0.771,1.069-0.886V22.655c-0.655-0.103-1.047-0.167-1.175-0.193v-0.058
				c1.13-0.86,1.994-1.586,2.591-2.177c0.353-0.456,0.982-1.275,1.888-2.456c0.629-0.7,1.043-1.072,1.242-1.117L47.78,16.568z
				 M44.573,18.562h0.019c0.077,0,0.17,0.212,0.279,0.636c-0.424,0.366-0.722,0.761-0.896,1.185
				c-0.071,0.199-0.106,0.35-0.106,0.453v13.291c0,1.207-0.424,2.144-1.271,2.812c-0.263,0.218-0.639,0.327-1.127,0.327
				c-0.051,0.013-0.488,0.064-1.31,0.154v-0.019c0.488-0.456,0.79-0.684,0.905-0.684c0.565,0,1.136-0.418,1.714-1.252
				c0.372-0.7,0.559-1.377,0.559-2.032V20.228c0-0.071,0.392-0.616,1.175-1.637L44.573,18.562z M48.984,37.025l0.433,0.51v0.019
				c-1.111,0.077-1.868,0.116-2.273,0.116H46.21c-0.09,0-0.135-0.023-0.135-0.067v-0.067c0-0.244,0.029-0.366,0.087-0.366
				C46.573,37.169,47.514,37.121,48.984,37.025z M48.368,17.377h0.222c0.032,0.006,0.048,0.023,0.048,0.048v2.889
				c0,0.032-0.161,0.379-0.482,1.04h-0.039v-3.91C48.117,17.4,48.201,17.377,48.368,17.377z M49.957,20.883h0.039v0.607
				c0,0.045-0.112,0.276-0.337,0.693c-0.417,0.822-0.758,1.551-1.021,2.186v11.818c0,0.032-0.016,0.048-0.048,0.048
				c-0.315-0.34-0.472-0.546-0.472-0.616V23.637c0.064-0.205,0.231-0.562,0.501-1.069h0.019v1.021h0.029L49.957,20.883z
				 M53.578,37.15h0.616c0.083,0,0.273,0.16,0.568,0.482c-1.207,0.026-2.116,0.039-2.726,0.039h-0.838
				c-0.019,0-0.029-0.013-0.029-0.039v-0.414l0.019-0.048C52.243,37.156,53.039,37.15,53.578,37.15z M55.37,17.589v0.039
				l-1.637,0.867V36.1c0,0.039-0.01,0.058-0.029,0.058c0-0.019-0.161-0.177-0.482-0.472V17.907c0-0.026,0.164-0.125,0.491-0.299
				h0.145C54.204,17.608,54.708,17.602,55.37,17.589z"/>
			<path style="fill:#FFFFFF;" d="M61.534,16.221c0.591,0,1.56,0.173,2.909,0.52c0.308-0.051,0.783-0.138,1.425-0.26l0.116,0.116
				c-0.835,0.597-1.31,0.896-1.425,0.896H64.51c0.013,2.909,0.019,5.146,0.019,6.713v0.867c-0.36,0-0.851-0.189-1.474-0.568
				c-0.501-0.379-0.806-0.78-0.915-1.204v-6.106c-0.34-0.353-0.665-0.53-0.973-0.53h-0.135c-0.681,0-1.21,0.697-1.589,2.09v4.151
				c0,0.475,0.286,1.111,0.857,1.907c0.642,0.706,1.332,1.332,2.071,1.878c0.925,0.7,1.48,1.358,1.666,1.974h0.01
				c0.039-0.045,0.388-0.331,1.05-0.857h0.029v0.01c-0.276,0.88-0.414,1.573-0.414,2.08c0.013,0.225,0.019,0.389,0.019,0.491
				c0,0.495-0.006,1.531-0.019,3.111l0.886-0.404l0.019,0.048c-0.982,1.49-1.586,2.379-1.811,2.668
				c-0.481,0.462-0.899,0.742-1.252,0.838c-0.661,0.135-1.316,0.202-1.965,0.202c-0.726,0-2.177-0.167-4.353-0.501v-0.067
				l1.31-0.751v-5.894c0-0.141-0.167-0.331-0.501-0.568c-0.218-0.122-0.459-0.183-0.722-0.183c-0.154,0.019-0.27,0.029-0.347,0.029
				l-0.019-0.048c0.019-0.257,0.116-0.385,0.289-0.385c0.334-0.077,0.629-0.116,0.886-0.116c1.123,0,2.109,0.517,2.957,1.551
				c0.379,0.604,0.594,1.101,0.645,1.493l-0.462,0.395c-0.18-0.263-0.369-0.395-0.568-0.395l-0.019,0.058v4.344
				c0,0.251,0.289,0.417,0.867,0.501h0.221c0.43,0,0.854-0.177,1.271-0.53v-6.28c-2.305-2.446-3.638-3.962-3.997-4.546
				c-0.424-0.623-0.636-1.108-0.636-1.454v-4.238c-0.925,0.135-1.409,0.202-1.454,0.202c-0.045-0.103-0.067-0.193-0.067-0.27
				c0.738-0.193,1.239-0.482,1.502-0.867c0.391-0.796,1.127-1.384,2.206-1.763C60.246,16.337,60.892,16.221,61.534,16.221z
				 M57.065,19.9l0.039,0.048v0.279c0,0.045-0.103,0.067-0.308,0.067c-0.032,0-0.061-0.093-0.087-0.279
				C56.824,19.984,56.943,19.945,57.065,19.9z M56.862,29.368h0.048c0.051,0,0.157,0.103,0.318,0.308
				c0,0.045-0.013,0.067-0.039,0.067h-0.241l-0.154,0.01c0-0.006-0.01-0.01-0.029-0.01L56.862,29.368z M65.531,33.875h0.019v0.462
				c0.186-0.096,0.485-0.237,0.896-0.424l0.019,0.058c-0.97,1.458-1.592,2.36-1.868,2.706c-0.456,0.436-0.857,0.7-1.204,0.79
				c-0.578,0.135-1.198,0.202-1.859,0.202H61.37c-0.771,0-2.212-0.167-4.324-0.501V37.15c0-0.026,0.151-0.125,0.453-0.299
				c1.252,0.212,2.292,0.318,3.121,0.318c1.496,0,2.504-0.26,3.024-0.78c0.475-0.43,0.896-0.966,1.262-1.608
				C65.309,34.177,65.518,33.875,65.531,33.875z M61.505,17.107c0.103,0.045,0.209,0.125,0.318,0.241v0.096
				c0,0.032-0.141,0.093-0.424,0.183c-0.469,0.283-0.844,0.912-1.127,1.888v4.286c0,0.09,0.045,0.292,0.135,0.607
				c-0.43-0.648-0.645-1.152-0.645-1.512V18.88c0.135-0.687,0.35-1.188,0.645-1.502C60.663,17.281,61.029,17.191,61.505,17.107z
				 M60.898,30.736c0.154,0.161,0.334,0.485,0.539,0.973c0.09,0.308,0.135,0.485,0.135,0.53c-0.186,0.161-0.34,0.289-0.462,0.385
				h-0.029c-0.141-0.244-0.305-0.366-0.491-0.366h-0.087v3.679l-0.019,0.058c-0.321-0.077-0.482-0.154-0.482-0.231v-3.708h0.048
				c0.019,0.084,0.074,0.167,0.164,0.25l0.896-0.799L60.898,30.736z M66.725,17.281l0.106,0.144
				c-0.867,0.604-1.361,0.905-1.483,0.905c0,1.586,0.01,4.106,0.029,7.561c-0.019,0-0.029,0.01-0.029,0.029
				c-0.7-0.148-1.213-0.372-1.541-0.674h0.048c0.244,0.077,0.584,0.154,1.021,0.231l-0.048-7.734
				c0.218-0.122,0.347-0.183,0.385-0.183h0.029c0.006,0,0.01,0.01,0.01,0.029L66.725,17.281z M65.954,28.617v0.029
				c-0.27,0.835-0.405,1.509-0.405,2.023c0,0.141,0.013,0.379,0.039,0.713c-0.026,0.475-0.039,0.934-0.039,1.377
				c-0.058,0.032-0.221,0.106-0.491,0.222c0-0.013-0.01-0.019-0.029-0.019c0.019-0.173,0.029-0.299,0.029-0.376V29.84
				c0-0.437,0.061-0.655,0.183-0.655C65.678,28.806,65.916,28.617,65.954,28.617z"/>
		</g>
		<g>
			<path style="fill:none;stroke:#0B3DAD;stroke-width:1.8126;" d="M22.315,16.578c0.507,0,1.673,0.042,3.496,0.125v0.039
				c-1.368,0.353-2.051,0.953-2.051,1.801c-0.051,0.61-0.077,1.804-0.077,3.583v0.848c0.045,8.752,0.116,13.128,0.212,13.128
				c0.103,0.263,0.308,0.395,0.616,0.395c0.173,0.006,0.372,0.01,0.597,0.01h0.116c0.026,0.006,0.039,0.026,0.039,0.058v0.202
				c0,0.026-0.013,0.039-0.039,0.039h-2.504c-0.79,0-1.319-0.385-1.589-1.156l-0.106-0.433c-0.006-1.425-0.01-2.517-0.01-3.275
				v-3.342h-2.437l-0.048,0.019c0.019,0.604,0.029,1.063,0.029,1.377v1.04c0,0.931,0.006,2.299,0.019,4.103
				c0.263,0.912,0.677,1.368,1.242,1.368c0.276,0.026,0.414,0.058,0.414,0.096v0.183c0,0.032-0.013,0.048-0.039,0.048h-5.028
				c-0.032,0-0.048-0.016-0.048-0.048V36.62l0.636-0.462c0.077-0.032,0.209-0.148,0.395-0.347V24.379l-1.242,0.982
				c-0.064-0.09-0.1-0.148-0.106-0.173c2.363-3.409,3.955-5.811,4.777-7.204c0.449-0.636,1.024-1.063,1.724-1.281
				C21.625,16.62,21.962,16.578,22.315,16.578z M15.775,25.756h0.048v0.385c0,0.032-0.016,0.048-0.048,0.048h-0.058
				c0-0.045-0.032-0.106-0.096-0.183C15.724,25.866,15.775,25.782,15.775,25.756z M16.44,37.15h3.573
				c0.282,0.141,0.584,0.212,0.905,0.212c0.109,0.013,0.164,0.032,0.164,0.058v0.212c0,0.026-0.019,0.039-0.058,0.039h-5.018
				c-0.026,0-0.039-0.013-0.039-0.039v-0.183C16.205,37.25,16.363,37.15,16.44,37.15z M18.53,24.369v3.814h2.485v-0.019
				c0-2.356,0.003-5.943,0.01-10.758c-1.631,1.817-2.446,2.992-2.446,3.525C18.546,21.496,18.53,22.642,18.53,24.369z
				 M20.687,18.494h0.029v1.069c-0.88,1.072-1.319,1.824-1.319,2.254c-0.013,0.835-0.019,1.509-0.019,2.023v3.978
				c0,0.032-0.016,0.048-0.048,0.048h-0.405c-0.051,0-0.077-0.096-0.077-0.289v-1.57c0-1.175,0.01-2.761,0.029-4.758
				c0.488-0.745,0.979-1.525,1.474-2.34C20.562,18.632,20.674,18.494,20.687,18.494z M18.925,28.915h0.405
				c0.032,0,0.048,0.029,0.048,0.087h1.271c0.026,0,0.039,0.016,0.039,0.048v0.347c0,0.026-0.013,0.039-0.039,0.039h-1.271
				c0.013,2.312,0.019,4.087,0.019,5.326c0,0.238,0.01,0.639,0.029,1.204c0.013,0.026,0.019,0.048,0.019,0.067h-0.019
				c-0.27-0.276-0.437-0.594-0.501-0.954c-0.019-0.026-0.029-0.058-0.029-0.096c-0.013-2.562-0.019-4.523-0.019-5.885v-0.135
				C18.877,28.931,18.893,28.915,18.925,28.915z M22.315,37.102h0.019c0.263,0.019,0.398,0.035,0.405,0.048
				c0.289-0.013,0.523-0.019,0.703-0.019h1.387c0.103,0.116,0.315,0.173,0.636,0.173c0,0.013,0.116,0.019,0.347,0.019h0.27v0.308
				H24.54c-0.263,0-0.604,0-1.021,0c-0.405,0-0.799-0.161-1.185-0.482L22.315,37.102z M24.877,17.445
				c1.008,0.045,1.599,0.067,1.772,0.067v0.048c-0.636,0.135-1.21,0.44-1.724,0.915c-0.238,0.161-0.356,0.713-0.356,1.657
				c-0.032,0.334-0.055,1.535-0.067,3.602c0.026,4.527,0.077,8.668,0.154,12.424h-0.048c-0.289,0-0.433-0.112-0.433-0.337
				c-0.122-4.096-0.183-8.447-0.183-13.05V22.27c0-2.819,0.067-4.228,0.202-4.228C24.501,17.676,24.729,17.477,24.877,17.445z"/>
			<path style="fill:none;stroke:#0B3DAD;stroke-width:1.8126;" d="M33.612,16.741c1.881,2.337,2.822,4.559,2.822,6.665v0.019
				c0,0.032,0.006,0.064,0.019,0.096c-0.084,0.764-0.523,1.714-1.319,2.851c-1.008,1.22-2.116,2.308-3.323,3.265
				c2.421-0.205,4.045-0.308,4.873-0.308c0,0.013,0.006,0.019,0.019,0.019c-0.244,0.591-0.366,0.925-0.366,1.002v11.432
				c0,0.411,0.222,0.693,0.665,0.848c0.167,0.039,0.302,0.058,0.405,0.058h0.077c0.539,0,0.957-0.286,1.252-0.857
				c0.327-0.578,0.491-1.278,0.491-2.1c0-0.148-0.032-0.533-0.096-1.156h0.973l0.029,0.029c0.019,0.379,0.029,0.68,0.029,0.905
				v0.328c0,1.599-0.591,2.636-1.772,3.111c-0.238,0.122-0.52,0.183-0.848,0.183h-0.318c-1.445,0-2.392-0.552-2.841-1.657
				c-0.218-0.443-0.327-0.693-0.327-0.751V29.84c-0.533,0.032-1.4,0.064-2.6,0.096v4.662c-0.276,1.027-0.681,1.724-1.214,2.09
				c-0.405,0.289-0.861,0.433-1.368,0.433c-0.533,0-1.185-0.157-1.955-0.472v-0.048c0.385-0.039,0.87-0.206,1.454-0.501
				c0.276-0.225,0.414-0.36,0.414-0.405v-4.623h-0.019c-0.629,0.353-1.04,0.53-1.233,0.53H27.42
				c-0.738-0.09-1.108-0.449-1.108-1.079v-0.385c0-0.482,0.164-0.764,0.491-0.848h0.048c0.122,0,0.388,0.084,0.799,0.25h0.019v0.077
				c-0.469,0.392-0.703,0.722-0.703,0.992v0.144c0,0.199,0.196,0.334,0.588,0.405c0.282,0,0.693-0.151,1.233-0.453V20.344
				l-1.522-0.125V20.18C30.964,18.132,33.079,16.986,33.612,16.741z M27.631,30.119h0.067c0.173,0,0.43,0.09,0.771,0.27v0.048
				c0,0.116-0.279,0.244-0.838,0.385h-0.096c-0.167-0.019-0.25-0.058-0.25-0.116v-0.067C27.285,30.511,27.4,30.338,27.631,30.119z
				 M27.969,31.843c0.128,0.071,0.295,0.122,0.501,0.154v0.376c0,0.019-0.032,0.042-0.096,0.067c-0.488,0-0.844-0.17-1.069-0.511
				l0.048-0.01h0.202C27.664,31.92,27.801,31.895,27.969,31.843z M32.909,30.206v0.029c0,0.006-0.084,0.08-0.25,0.222
				c0.603-0.045,0.953-0.077,1.05-0.096l0.019,0.048v0.27c0,0.045-0.023,0.067-0.067,0.067c-0.488,0-0.953,0.01-1.397,0.029v4.71
				c-0.212,0.88-0.581,1.538-1.108,1.974c-0.437,0.321-0.902,0.482-1.397,0.482h-0.067c-0.572,0-1.223-0.161-1.955-0.482V37.42
				c0.051,0,0.157-0.026,0.318-0.077c0.257,0.064,0.53,0.096,0.819,0.096c1.374,0,2.321-0.854,2.841-2.562
				c0.039-0.096,0.058-0.167,0.058-0.212v-4.373l0.019-0.048C32.319,30.238,32.691,30.225,32.909,30.206z M28.44,20.844h0.029v0.202
				l-0.029,0.029l-0.222-0.01h-0.135v-0.019C28.084,21.002,28.203,20.934,28.44,20.844z M31.455,18.34v10.508
				c1.971-1.644,2.957-3.268,2.957-4.873v-0.087c0-0.809-0.247-1.814-0.742-3.015C33.15,19.801,32.412,18.957,31.455,18.34z
				 M31.773,18.986h0.019c0.135,0.096,0.292,0.244,0.472,0.443v8.206c0,0.019-0.157,0.18-0.472,0.482l-0.019-0.048V18.986z
				 M35.905,19.698c0.905,1.541,1.358,3.082,1.358,4.623c-0.071,0.719-0.401,1.535-0.992,2.446
				c-0.302,0.462-0.896,1.146-1.782,2.051c-0.186,0.212-0.331,0.318-0.433,0.318l-1.214,0.087v-0.019
				c1.156-1.046,1.958-1.862,2.408-2.446c0.867-1.149,1.364-2.177,1.493-3.082l0.029-0.135c0-1.181-0.289-2.456-0.867-3.824V19.698z
				 M40.528,39.394h0.405c0.039,0.006,0.058,0.022,0.058,0.048c0.006,0.571,0.01,0.973,0.01,1.204c0,1.586-0.581,2.626-1.743,3.121
				c-0.315,0.109-0.507,0.164-0.578,0.164h-0.202c-0.122,0-0.218,0.013-0.289,0.039c-1.021,0-1.772-0.225-2.254-0.674h0.019
				c0.405,0.103,0.79,0.154,1.156,0.154h0.607c0.295,0.045,0.488,0.067,0.578,0.067h0.029c0.597,0,1.05-0.372,1.358-1.117
				c0.533-0.572,0.799-1.387,0.799-2.446v-0.511C40.486,39.41,40.502,39.394,40.528,39.394z M37.321,30.139h0.183l0.039,0.029
				c-0.244,0.584-0.366,0.899-0.366,0.944v11.182c0,0.026-0.01,0.039-0.029,0.039c-0.308-0.103-0.462-0.244-0.462-0.424
				c-0.019,0-0.029-0.048-0.029-0.144V30.408c0-0.16,0.077-0.241,0.231-0.241C36.97,30.148,37.115,30.139,37.321,30.139z"/>
			<path style="fill:none;stroke:#0B3DAD;stroke-width:1.8126;" d="M47.78,16.568l0.019,0.029V22.8h0.019
				c1.201-2.491,1.984-4.084,2.35-4.777c0.764-0.822,1.4-1.233,1.907-1.233h0.761c0.353,0,0.921-0.006,1.705-0.019v0.039
				l-1.637,0.867v18.145c0,0.019,0.343,0.347,1.031,0.982l-0.039,0.029H50.4c-0.039,0-0.058-0.016-0.058-0.048V19.361h-0.019
				c-0.315,0.186-0.639,0.533-0.973,1.04c-0.514,0.893-1.031,1.939-1.551,3.14v12.27l0.78,0.905v0.019
				c-1.271,0.077-2.154,0.116-2.649,0.116h-0.347c-0.071,0-0.18-0.006-0.327-0.019c0.013-0.751,0.019-1.336,0.019-1.753v-2.995
				c0-5.477-0.019-9.705-0.058-12.684c-0.122-0.809-0.363-1.214-0.722-1.214c-0.417,0-0.857,0.44-1.319,1.319
				c-0.045,0.064-0.096,0.218-0.154,0.462v13.465c0,0.861-0.295,1.653-0.886,2.379c-0.449,0.405-0.861,0.607-1.233,0.607
				l-1.57,0.164v-0.048c0.61-0.475,0.966-0.771,1.069-0.886V22.655c-0.655-0.103-1.047-0.167-1.175-0.193v-0.058
				c1.13-0.86,1.994-1.586,2.591-2.177c0.353-0.456,0.982-1.275,1.888-2.456c0.629-0.7,1.043-1.072,1.242-1.117L47.78,16.568z
				 M44.573,18.562h0.019c0.077,0,0.17,0.212,0.279,0.636c-0.424,0.366-0.722,0.761-0.896,1.185
				c-0.071,0.199-0.106,0.35-0.106,0.453v13.291c0,1.207-0.424,2.144-1.271,2.812c-0.263,0.218-0.639,0.327-1.127,0.327
				c-0.051,0.013-0.488,0.064-1.31,0.154v-0.019c0.488-0.456,0.79-0.684,0.905-0.684c0.565,0,1.136-0.418,1.714-1.252
				c0.372-0.7,0.559-1.377,0.559-2.032V20.228c0-0.071,0.392-0.616,1.175-1.637L44.573,18.562z M48.984,37.025l0.433,0.51v0.019
				c-1.111,0.077-1.868,0.116-2.273,0.116H46.21c-0.09,0-0.135-0.023-0.135-0.067v-0.067c0-0.244,0.029-0.366,0.087-0.366
				C46.573,37.169,47.514,37.121,48.984,37.025z M48.368,17.377h0.222c0.032,0.006,0.048,0.023,0.048,0.048v2.889
				c0,0.032-0.161,0.379-0.482,1.04h-0.039v-3.91C48.117,17.4,48.201,17.377,48.368,17.377z M49.957,20.883h0.039v0.607
				c0,0.045-0.112,0.276-0.337,0.693c-0.417,0.822-0.758,1.551-1.021,2.186v11.818c0,0.032-0.016,0.048-0.048,0.048
				c-0.315-0.34-0.472-0.546-0.472-0.616V23.637c0.064-0.205,0.231-0.562,0.501-1.069h0.019v1.021h0.029L49.957,20.883z
				 M53.578,37.15h0.616c0.083,0,0.273,0.16,0.568,0.482c-1.207,0.026-2.116,0.039-2.726,0.039h-0.838
				c-0.019,0-0.029-0.013-0.029-0.039v-0.414l0.019-0.048C52.243,37.156,53.039,37.15,53.578,37.15z M55.37,17.589v0.039
				l-1.637,0.867V36.1c0,0.039-0.01,0.058-0.029,0.058c0-0.019-0.161-0.177-0.482-0.472V17.907c0-0.026,0.164-0.125,0.491-0.299
				h0.145C54.204,17.608,54.708,17.602,55.37,17.589z"/>
			<path style="fill:none;stroke:#0B3DAD;stroke-width:1.8126;" d="M61.534,16.221c0.591,0,1.56,0.173,2.909,0.52
				c0.308-0.051,0.783-0.138,1.425-0.26l0.116,0.116c-0.835,0.597-1.31,0.896-1.425,0.896H64.51
				c0.013,2.909,0.019,5.146,0.019,6.713v0.867c-0.36,0-0.851-0.189-1.474-0.568c-0.501-0.379-0.806-0.78-0.915-1.204v-6.106
				c-0.34-0.353-0.665-0.53-0.973-0.53h-0.135c-0.681,0-1.21,0.697-1.589,2.09v4.151c0,0.475,0.286,1.111,0.857,1.907
				c0.642,0.706,1.332,1.332,2.071,1.878c0.925,0.7,1.48,1.358,1.666,1.974h0.01c0.039-0.045,0.388-0.331,1.05-0.857h0.029v0.01
				c-0.276,0.88-0.414,1.573-0.414,2.08c0.013,0.225,0.019,0.389,0.019,0.491c0,0.495-0.006,1.531-0.019,3.111l0.886-0.404
				l0.019,0.048c-0.982,1.49-1.586,2.379-1.811,2.668c-0.481,0.462-0.899,0.742-1.252,0.838c-0.661,0.135-1.316,0.202-1.965,0.202
				c-0.726,0-2.177-0.167-4.353-0.501v-0.067l1.31-0.751v-5.894c0-0.141-0.167-0.331-0.501-0.568
				c-0.218-0.122-0.459-0.183-0.722-0.183c-0.154,0.019-0.27,0.029-0.347,0.029l-0.019-0.048c0.019-0.257,0.116-0.385,0.289-0.385
				c0.334-0.077,0.629-0.116,0.886-0.116c1.123,0,2.109,0.517,2.957,1.551c0.379,0.604,0.594,1.101,0.645,1.493l-0.462,0.395
				c-0.18-0.263-0.369-0.395-0.568-0.395l-0.019,0.058v4.344c0,0.251,0.289,0.417,0.867,0.501h0.221c0.43,0,0.854-0.177,1.271-0.53
				v-6.28c-2.305-2.446-3.638-3.962-3.997-4.546c-0.424-0.623-0.636-1.108-0.636-1.454v-4.238c-0.925,0.135-1.409,0.202-1.454,0.202
				c-0.045-0.103-0.067-0.193-0.067-0.27c0.738-0.193,1.239-0.482,1.502-0.867c0.391-0.796,1.127-1.384,2.206-1.763
				C60.246,16.337,60.892,16.221,61.534,16.221z M57.065,19.9l0.039,0.048v0.279c0,0.045-0.103,0.067-0.308,0.067
				c-0.032,0-0.061-0.093-0.087-0.279C56.824,19.984,56.943,19.945,57.065,19.9z M56.862,29.368h0.048
				c0.051,0,0.157,0.103,0.318,0.308c0,0.045-0.013,0.067-0.039,0.067h-0.241l-0.154,0.01c0-0.006-0.01-0.01-0.029-0.01
				L56.862,29.368z M65.531,33.875h0.019v0.462c0.186-0.096,0.485-0.237,0.896-0.424l0.019,0.058
				c-0.97,1.458-1.592,2.36-1.868,2.706c-0.456,0.436-0.857,0.7-1.204,0.79c-0.578,0.135-1.198,0.202-1.859,0.202H61.37
				c-0.771,0-2.212-0.167-4.324-0.501V37.15c0-0.026,0.151-0.125,0.453-0.299c1.252,0.212,2.292,0.318,3.121,0.318
				c1.496,0,2.504-0.26,3.024-0.78c0.475-0.43,0.896-0.966,1.262-1.608C65.309,34.177,65.518,33.875,65.531,33.875z M61.505,17.107
				c0.103,0.045,0.209,0.125,0.318,0.241v0.096c0,0.032-0.141,0.093-0.424,0.183c-0.469,0.283-0.844,0.912-1.127,1.888v4.286
				c0,0.09,0.045,0.292,0.135,0.607c-0.43-0.648-0.645-1.152-0.645-1.512V18.88c0.135-0.687,0.35-1.188,0.645-1.502
				C60.663,17.281,61.029,17.191,61.505,17.107z M60.898,30.736c0.154,0.161,0.334,0.485,0.539,0.973
				c0.09,0.308,0.135,0.485,0.135,0.53c-0.186,0.161-0.34,0.289-0.462,0.385h-0.029c-0.141-0.244-0.305-0.366-0.491-0.366h-0.087
				v3.679l-0.019,0.058c-0.321-0.077-0.482-0.154-0.482-0.231v-3.708h0.048c0.019,0.084,0.074,0.167,0.164,0.25l0.896-0.799
				L60.898,30.736z M66.725,17.281l0.106,0.144c-0.867,0.604-1.361,0.905-1.483,0.905c0,1.586,0.01,4.106,0.029,7.561
				c-0.019,0-0.029,0.01-0.029,0.029c-0.7-0.148-1.213-0.372-1.541-0.674h0.048c0.244,0.077,0.584,0.154,1.021,0.231l-0.048-7.734
				c0.218-0.122,0.347-0.183,0.385-0.183h0.029c0.006,0,0.01,0.01,0.01,0.029L66.725,17.281z M65.954,28.617v0.029
				c-0.27,0.835-0.405,1.509-0.405,2.023c0,0.141,0.013,0.379,0.039,0.713c-0.026,0.475-0.039,0.934-0.039,1.377
				c-0.058,0.032-0.221,0.106-0.491,0.222c0-0.013-0.01-0.019-0.029-0.019c0.019-0.173,0.029-0.299,0.029-0.376V29.84
				c0-0.437,0.061-0.655,0.183-0.655C65.678,28.806,65.916,28.617,65.954,28.617z"/>
		</g>
		<g>
			<path style="fill:none;stroke:#231F20;stroke-width:1.0662;" d="M22.315,16.578c0.507,0,1.673,0.042,3.496,0.125v0.039
				c-1.368,0.353-2.051,0.953-2.051,1.801c-0.051,0.61-0.077,1.804-0.077,3.583v0.848c0.045,8.752,0.116,13.128,0.212,13.128
				c0.103,0.263,0.308,0.395,0.616,0.395c0.173,0.006,0.372,0.01,0.597,0.01h0.116c0.026,0.006,0.039,0.026,0.039,0.058v0.202
				c0,0.026-0.013,0.039-0.039,0.039h-2.504c-0.79,0-1.319-0.385-1.589-1.156l-0.106-0.433c-0.006-1.425-0.01-2.517-0.01-3.275
				v-3.342h-2.437l-0.048,0.019c0.019,0.604,0.029,1.063,0.029,1.377v1.04c0,0.931,0.006,2.299,0.019,4.103
				c0.263,0.912,0.677,1.368,1.242,1.368c0.276,0.026,0.414,0.058,0.414,0.096v0.183c0,0.032-0.013,0.048-0.039,0.048h-5.028
				c-0.032,0-0.048-0.016-0.048-0.048V36.62l0.636-0.462c0.077-0.032,0.209-0.148,0.395-0.347V24.379l-1.242,0.982
				c-0.064-0.09-0.1-0.148-0.106-0.173c2.363-3.409,3.955-5.811,4.777-7.204c0.449-0.636,1.024-1.063,1.724-1.281
				C21.625,16.62,21.962,16.578,22.315,16.578z M15.775,25.756h0.048v0.385c0,0.032-0.016,0.048-0.048,0.048h-0.058
				c0-0.045-0.032-0.106-0.096-0.183C15.724,25.866,15.775,25.782,15.775,25.756z M16.44,37.15h3.573
				c0.282,0.141,0.584,0.212,0.905,0.212c0.109,0.013,0.164,0.032,0.164,0.058v0.212c0,0.026-0.019,0.039-0.058,0.039h-5.018
				c-0.026,0-0.039-0.013-0.039-0.039v-0.183C16.205,37.25,16.363,37.15,16.44,37.15z M18.53,24.369v3.814h2.485v-0.019
				c0-2.356,0.003-5.943,0.01-10.758c-1.631,1.817-2.446,2.992-2.446,3.525C18.546,21.496,18.53,22.642,18.53,24.369z
				 M20.687,18.494h0.029v1.069c-0.88,1.072-1.319,1.824-1.319,2.254c-0.013,0.835-0.019,1.509-0.019,2.023v3.978
				c0,0.032-0.016,0.048-0.048,0.048h-0.405c-0.051,0-0.077-0.096-0.077-0.289v-1.57c0-1.175,0.01-2.761,0.029-4.758
				c0.488-0.745,0.979-1.525,1.474-2.34C20.562,18.632,20.674,18.494,20.687,18.494z M18.925,28.915h0.405
				c0.032,0,0.048,0.029,0.048,0.087h1.271c0.026,0,0.039,0.016,0.039,0.048v0.347c0,0.026-0.013,0.039-0.039,0.039h-1.271
				c0.013,2.312,0.019,4.087,0.019,5.326c0,0.238,0.01,0.639,0.029,1.204c0.013,0.026,0.019,0.048,0.019,0.067h-0.019
				c-0.27-0.276-0.437-0.594-0.501-0.954c-0.019-0.026-0.029-0.058-0.029-0.096c-0.013-2.562-0.019-4.523-0.019-5.885v-0.135
				C18.877,28.931,18.893,28.915,18.925,28.915z M22.315,37.102h0.019c0.263,0.019,0.398,0.035,0.405,0.048
				c0.289-0.013,0.523-0.019,0.703-0.019h1.387c0.103,0.116,0.315,0.173,0.636,0.173c0,0.013,0.116,0.019,0.347,0.019h0.27v0.308
				H24.54c-0.263,0-0.604,0-1.021,0c-0.405,0-0.799-0.161-1.185-0.482L22.315,37.102z M24.877,17.445
				c1.008,0.045,1.599,0.067,1.772,0.067v0.048c-0.636,0.135-1.21,0.44-1.724,0.915c-0.238,0.161-0.356,0.713-0.356,1.657
				c-0.032,0.334-0.055,1.535-0.067,3.602c0.026,4.527,0.077,8.668,0.154,12.424h-0.048c-0.289,0-0.433-0.112-0.433-0.337
				c-0.122-4.096-0.183-8.447-0.183-13.05V22.27c0-2.819,0.067-4.228,0.202-4.228C24.501,17.676,24.729,17.477,24.877,17.445z"/>
			<path style="fill:none;stroke:#231F20;stroke-width:1.0662;" d="M33.612,16.741c1.881,2.337,2.822,4.559,2.822,6.665v0.019
				c0,0.032,0.006,0.064,0.019,0.096c-0.084,0.764-0.523,1.714-1.319,2.851c-1.008,1.22-2.116,2.308-3.323,3.265
				c2.421-0.205,4.045-0.308,4.873-0.308c0,0.013,0.006,0.019,0.019,0.019c-0.244,0.591-0.366,0.925-0.366,1.002v11.432
				c0,0.411,0.222,0.693,0.665,0.848c0.167,0.039,0.302,0.058,0.405,0.058h0.077c0.539,0,0.957-0.286,1.252-0.857
				c0.327-0.578,0.491-1.278,0.491-2.1c0-0.148-0.032-0.533-0.096-1.156h0.973l0.029,0.029c0.019,0.379,0.029,0.68,0.029,0.905
				v0.328c0,1.599-0.591,2.636-1.772,3.111c-0.238,0.122-0.52,0.183-0.848,0.183h-0.318c-1.445,0-2.392-0.552-2.841-1.657
				c-0.218-0.443-0.327-0.693-0.327-0.751V29.84c-0.533,0.032-1.4,0.064-2.6,0.096v4.662c-0.276,1.027-0.681,1.724-1.214,2.09
				c-0.405,0.289-0.861,0.433-1.368,0.433c-0.533,0-1.185-0.157-1.955-0.472v-0.048c0.385-0.039,0.87-0.206,1.454-0.501
				c0.276-0.225,0.414-0.36,0.414-0.405v-4.623h-0.019c-0.629,0.353-1.04,0.53-1.233,0.53H27.42
				c-0.738-0.09-1.108-0.449-1.108-1.079v-0.385c0-0.482,0.164-0.764,0.491-0.848h0.048c0.122,0,0.388,0.084,0.799,0.25h0.019v0.077
				c-0.469,0.392-0.703,0.722-0.703,0.992v0.144c0,0.199,0.196,0.334,0.588,0.405c0.282,0,0.693-0.151,1.233-0.453V20.344
				l-1.522-0.125V20.18C30.964,18.132,33.079,16.986,33.612,16.741z M27.631,30.119h0.067c0.173,0,0.43,0.09,0.771,0.27v0.048
				c0,0.116-0.279,0.244-0.838,0.385h-0.096c-0.167-0.019-0.25-0.058-0.25-0.116v-0.067C27.285,30.511,27.4,30.338,27.631,30.119z
				 M27.969,31.843c0.128,0.071,0.295,0.122,0.501,0.154v0.376c0,0.019-0.032,0.042-0.096,0.067c-0.488,0-0.844-0.17-1.069-0.511
				l0.048-0.01h0.202C27.664,31.92,27.801,31.895,27.969,31.843z M32.909,30.206v0.029c0,0.006-0.084,0.08-0.25,0.222
				c0.603-0.045,0.953-0.077,1.05-0.096l0.019,0.048v0.27c0,0.045-0.023,0.067-0.067,0.067c-0.488,0-0.953,0.01-1.397,0.029v4.71
				c-0.212,0.88-0.581,1.538-1.108,1.974c-0.437,0.321-0.902,0.482-1.397,0.482h-0.067c-0.572,0-1.223-0.161-1.955-0.482V37.42
				c0.051,0,0.157-0.026,0.318-0.077c0.257,0.064,0.53,0.096,0.819,0.096c1.374,0,2.321-0.854,2.841-2.562
				c0.039-0.096,0.058-0.167,0.058-0.212v-4.373l0.019-0.048C32.319,30.238,32.691,30.225,32.909,30.206z M28.44,20.844h0.029v0.202
				l-0.029,0.029l-0.222-0.01h-0.135v-0.019C28.084,21.002,28.203,20.934,28.44,20.844z M31.455,18.34v10.508
				c1.971-1.644,2.957-3.268,2.957-4.873v-0.087c0-0.809-0.247-1.814-0.742-3.015C33.15,19.801,32.412,18.957,31.455,18.34z
				 M31.773,18.986h0.019c0.135,0.096,0.292,0.244,0.472,0.443v8.206c0,0.019-0.157,0.18-0.472,0.482l-0.019-0.048V18.986z
				 M35.905,19.698c0.905,1.541,1.358,3.082,1.358,4.623c-0.071,0.719-0.401,1.535-0.992,2.446
				c-0.302,0.462-0.896,1.146-1.782,2.051c-0.186,0.212-0.331,0.318-0.433,0.318l-1.214,0.087v-0.019
				c1.156-1.046,1.958-1.862,2.408-2.446c0.867-1.149,1.364-2.177,1.493-3.082l0.029-0.135c0-1.181-0.289-2.456-0.867-3.824V19.698z
				 M40.528,39.394h0.405c0.039,0.006,0.058,0.022,0.058,0.048c0.006,0.571,0.01,0.973,0.01,1.204c0,1.586-0.581,2.626-1.743,3.121
				c-0.315,0.109-0.507,0.164-0.578,0.164h-0.202c-0.122,0-0.218,0.013-0.289,0.039c-1.021,0-1.772-0.225-2.254-0.674h0.019
				c0.405,0.103,0.79,0.154,1.156,0.154h0.607c0.295,0.045,0.488,0.067,0.578,0.067h0.029c0.597,0,1.05-0.372,1.358-1.117
				c0.533-0.572,0.799-1.387,0.799-2.446v-0.511C40.486,39.41,40.502,39.394,40.528,39.394z M37.321,30.139h0.183l0.039,0.029
				c-0.244,0.584-0.366,0.899-0.366,0.944v11.182c0,0.026-0.01,0.039-0.029,0.039c-0.308-0.103-0.462-0.244-0.462-0.424
				c-0.019,0-0.029-0.048-0.029-0.144V30.408c0-0.16,0.077-0.241,0.231-0.241C36.97,30.148,37.115,30.139,37.321,30.139z"/>
			<path style="fill:none;stroke:#231F20;stroke-width:1.0662;" d="M47.78,16.568l0.019,0.029V22.8h0.019
				c1.201-2.491,1.984-4.084,2.35-4.777c0.764-0.822,1.4-1.233,1.907-1.233h0.761c0.353,0,0.921-0.006,1.705-0.019v0.039
				l-1.637,0.867v18.145c0,0.019,0.343,0.347,1.031,0.982l-0.039,0.029H50.4c-0.039,0-0.058-0.016-0.058-0.048V19.361h-0.019
				c-0.315,0.186-0.639,0.533-0.973,1.04c-0.514,0.893-1.031,1.939-1.551,3.14v12.27l0.78,0.905v0.019
				c-1.271,0.077-2.154,0.116-2.649,0.116h-0.347c-0.071,0-0.18-0.006-0.327-0.019c0.013-0.751,0.019-1.336,0.019-1.753v-2.995
				c0-5.477-0.019-9.705-0.058-12.684c-0.122-0.809-0.363-1.214-0.722-1.214c-0.417,0-0.857,0.44-1.319,1.319
				c-0.045,0.064-0.096,0.218-0.154,0.462v13.465c0,0.861-0.295,1.653-0.886,2.379c-0.449,0.405-0.861,0.607-1.233,0.607
				l-1.57,0.164v-0.048c0.61-0.475,0.966-0.771,1.069-0.886V22.655c-0.655-0.103-1.047-0.167-1.175-0.193v-0.058
				c1.13-0.86,1.994-1.586,2.591-2.177c0.353-0.456,0.982-1.275,1.888-2.456c0.629-0.7,1.043-1.072,1.242-1.117L47.78,16.568z
				 M44.573,18.562h0.019c0.077,0,0.17,0.212,0.279,0.636c-0.424,0.366-0.722,0.761-0.896,1.185
				c-0.071,0.199-0.106,0.35-0.106,0.453v13.291c0,1.207-0.424,2.144-1.271,2.812c-0.263,0.218-0.639,0.327-1.127,0.327
				c-0.051,0.013-0.488,0.064-1.31,0.154v-0.019c0.488-0.456,0.79-0.684,0.905-0.684c0.565,0,1.136-0.418,1.714-1.252
				c0.372-0.7,0.559-1.377,0.559-2.032V20.228c0-0.071,0.392-0.616,1.175-1.637L44.573,18.562z M48.984,37.025l0.433,0.51v0.019
				c-1.111,0.077-1.868,0.116-2.273,0.116H46.21c-0.09,0-0.135-0.023-0.135-0.067v-0.067c0-0.244,0.029-0.366,0.087-0.366
				C46.573,37.169,47.514,37.121,48.984,37.025z M48.368,17.377h0.222c0.032,0.006,0.048,0.023,0.048,0.048v2.889
				c0,0.032-0.161,0.379-0.482,1.04h-0.039v-3.91C48.117,17.4,48.201,17.377,48.368,17.377z M49.957,20.883h0.039v0.607
				c0,0.045-0.112,0.276-0.337,0.693c-0.417,0.822-0.758,1.551-1.021,2.186v11.818c0,0.032-0.016,0.048-0.048,0.048
				c-0.315-0.34-0.472-0.546-0.472-0.616V23.637c0.064-0.205,0.231-0.562,0.501-1.069h0.019v1.021h0.029L49.957,20.883z
				 M53.578,37.15h0.616c0.083,0,0.273,0.16,0.568,0.482c-1.207,0.026-2.116,0.039-2.726,0.039h-0.838
				c-0.019,0-0.029-0.013-0.029-0.039v-0.414l0.019-0.048C52.243,37.156,53.039,37.15,53.578,37.15z M55.37,17.589v0.039
				l-1.637,0.867V36.1c0,0.039-0.01,0.058-0.029,0.058c0-0.019-0.161-0.177-0.482-0.472V17.907c0-0.026,0.164-0.125,0.491-0.299
				h0.145C54.204,17.608,54.708,17.602,55.37,17.589z"/>
			<path style="fill:none;stroke:#231F20;stroke-width:1.0662;" d="M61.534,16.221c0.591,0,1.56,0.173,2.909,0.52
				c0.308-0.051,0.783-0.138,1.425-0.26l0.116,0.116c-0.835,0.597-1.31,0.896-1.425,0.896H64.51
				c0.013,2.909,0.019,5.146,0.019,6.713v0.867c-0.36,0-0.851-0.189-1.474-0.568c-0.501-0.379-0.806-0.78-0.915-1.204v-6.106
				c-0.34-0.353-0.665-0.53-0.973-0.53h-0.135c-0.681,0-1.21,0.697-1.589,2.09v4.151c0,0.475,0.286,1.111,0.857,1.907
				c0.642,0.706,1.332,1.332,2.071,1.878c0.925,0.7,1.48,1.358,1.666,1.974h0.01c0.039-0.045,0.388-0.331,1.05-0.857h0.029v0.01
				c-0.276,0.88-0.414,1.573-0.414,2.08c0.013,0.225,0.019,0.389,0.019,0.491c0,0.495-0.006,1.531-0.019,3.111l0.886-0.404
				l0.019,0.048c-0.982,1.49-1.586,2.379-1.811,2.668c-0.481,0.462-0.899,0.742-1.252,0.838c-0.661,0.135-1.316,0.202-1.965,0.202
				c-0.726,0-2.177-0.167-4.353-0.501v-0.067l1.31-0.751v-5.894c0-0.141-0.167-0.331-0.501-0.568
				c-0.218-0.122-0.459-0.183-0.722-0.183c-0.154,0.019-0.27,0.029-0.347,0.029l-0.019-0.048c0.019-0.257,0.116-0.385,0.289-0.385
				c0.334-0.077,0.629-0.116,0.886-0.116c1.123,0,2.109,0.517,2.957,1.551c0.379,0.604,0.594,1.101,0.645,1.493l-0.462,0.395
				c-0.18-0.263-0.369-0.395-0.568-0.395l-0.019,0.058v4.344c0,0.251,0.289,0.417,0.867,0.501h0.221c0.43,0,0.854-0.177,1.271-0.53
				v-6.28c-2.305-2.446-3.638-3.962-3.997-4.546c-0.424-0.623-0.636-1.108-0.636-1.454v-4.238c-0.925,0.135-1.409,0.202-1.454,0.202
				c-0.045-0.103-0.067-0.193-0.067-0.27c0.738-0.193,1.239-0.482,1.502-0.867c0.391-0.796,1.127-1.384,2.206-1.763
				C60.246,16.337,60.892,16.221,61.534,16.221z M57.065,19.9l0.039,0.048v0.279c0,0.045-0.103,0.067-0.308,0.067
				c-0.032,0-0.061-0.093-0.087-0.279C56.824,19.984,56.943,19.945,57.065,19.9z M56.862,29.368h0.048
				c0.051,0,0.157,0.103,0.318,0.308c0,0.045-0.013,0.067-0.039,0.067h-0.241l-0.154,0.01c0-0.006-0.01-0.01-0.029-0.01
				L56.862,29.368z M65.531,33.875h0.019v0.462c0.186-0.096,0.485-0.237,0.896-0.424l0.019,0.058
				c-0.97,1.458-1.592,2.36-1.868,2.706c-0.456,0.436-0.857,0.7-1.204,0.79c-0.578,0.135-1.198,0.202-1.859,0.202H61.37
				c-0.771,0-2.212-0.167-4.324-0.501V37.15c0-0.026,0.151-0.125,0.453-0.299c1.252,0.212,2.292,0.318,3.121,0.318
				c1.496,0,2.504-0.26,3.024-0.78c0.475-0.43,0.896-0.966,1.262-1.608C65.309,34.177,65.518,33.875,65.531,33.875z M61.505,17.107
				c0.103,0.045,0.209,0.125,0.318,0.241v0.096c0,0.032-0.141,0.093-0.424,0.183c-0.469,0.283-0.844,0.912-1.127,1.888v4.286
				c0,0.09,0.045,0.292,0.135,0.607c-0.43-0.648-0.645-1.152-0.645-1.512V18.88c0.135-0.687,0.35-1.188,0.645-1.502
				C60.663,17.281,61.029,17.191,61.505,17.107z M60.898,30.736c0.154,0.161,0.334,0.485,0.539,0.973
				c0.09,0.308,0.135,0.485,0.135,0.53c-0.186,0.161-0.34,0.289-0.462,0.385h-0.029c-0.141-0.244-0.305-0.366-0.491-0.366h-0.087
				v3.679l-0.019,0.058c-0.321-0.077-0.482-0.154-0.482-0.231v-3.708h0.048c0.019,0.084,0.074,0.167,0.164,0.25l0.896-0.799
				L60.898,30.736z M66.725,17.281l0.106,0.144c-0.867,0.604-1.361,0.905-1.483,0.905c0,1.586,0.01,4.106,0.029,7.561
				c-0.019,0-0.029,0.01-0.029,0.029c-0.7-0.148-1.213-0.372-1.541-0.674h0.048c0.244,0.077,0.584,0.154,1.021,0.231l-0.048-7.734
				c0.218-0.122,0.347-0.183,0.385-0.183h0.029c0.006,0,0.01,0.01,0.01,0.029L66.725,17.281z M65.954,28.617v0.029
				c-0.27,0.835-0.405,1.509-0.405,2.023c0,0.141,0.013,0.379,0.039,0.713c-0.026,0.475-0.039,0.934-0.039,1.377
				c-0.058,0.032-0.221,0.106-0.491,0.222c0-0.013-0.01-0.019-0.029-0.019c0.019-0.173,0.029-0.299,0.029-0.376V29.84
				c0-0.437,0.061-0.655,0.183-0.655C65.678,28.806,65.916,28.617,65.954,28.617z"/>
		</g>
		<g>
			<linearGradient id="SVGID_1_" gradientUnits="userSpaceOnUse" x1="40.8167" y1="43.9691" x2="40.8167" y2="16.2213">
				<stop  offset="0" style="stop-color:#93CFF9"/>
				<stop  offset="0.1045" style="stop-color:#ADDBFA"/>
				<stop  offset="0.2514" style="stop-color:#CBE8FC"/>
				<stop  offset="0.4073" style="stop-color:#E2F2FD"/>
				<stop  offset="0.574" style="stop-color:#F2F9FE"/>
				<stop  offset="0.7592" style="stop-color:#FCFEFF"/>
				<stop  offset="1" style="stop-color:#FFFFFF"/>
			</linearGradient>
			<path style="fill:url(#SVGID_1_);" d="M22.315,16.578c0.507,0,1.673,0.042,3.496,0.125v0.039
				c-1.368,0.353-2.051,0.953-2.051,1.801c-0.051,0.61-0.077,1.804-0.077,3.583v0.848c0.045,8.752,0.116,13.128,0.212,13.128
				c0.103,0.263,0.308,0.395,0.616,0.395c0.173,0.006,0.372,0.01,0.597,0.01h0.116c0.026,0.006,0.039,0.026,0.039,0.058v0.202
				c0,0.026-0.013,0.039-0.039,0.039h-2.504c-0.79,0-1.319-0.385-1.589-1.156l-0.106-0.433c-0.006-1.425-0.01-2.517-0.01-3.275
				v-3.342h-2.437l-0.048,0.019c0.019,0.604,0.029,1.063,0.029,1.377v1.04c0,0.931,0.006,2.299,0.019,4.103
				c0.263,0.912,0.677,1.368,1.242,1.368c0.276,0.026,0.414,0.058,0.414,0.096v0.183c0,0.032-0.013,0.048-0.039,0.048h-5.028
				c-0.032,0-0.048-0.016-0.048-0.048V36.62l0.636-0.462c0.077-0.032,0.209-0.148,0.395-0.347V24.379l-1.242,0.982
				c-0.064-0.09-0.1-0.148-0.106-0.173c2.363-3.409,3.955-5.811,4.777-7.204c0.449-0.636,1.024-1.063,1.724-1.281
				C21.625,16.62,21.962,16.578,22.315,16.578z M15.775,25.756h0.048v0.385c0,0.032-0.016,0.048-0.048,0.048h-0.058
				c0-0.045-0.032-0.106-0.096-0.183C15.724,25.866,15.775,25.782,15.775,25.756z M16.44,37.15h3.573
				c0.282,0.141,0.584,0.212,0.905,0.212c0.109,0.013,0.164,0.032,0.164,0.058v0.212c0,0.026-0.019,0.039-0.058,0.039h-5.018
				c-0.026,0-0.039-0.013-0.039-0.039v-0.183C16.205,37.25,16.363,37.15,16.44,37.15z M18.53,24.369v3.814h2.485v-0.019
				c0-2.356,0.003-5.943,0.01-10.758c-1.631,1.817-2.446,2.992-2.446,3.525C18.546,21.496,18.53,22.642,18.53,24.369z
				 M20.687,18.494h0.029v1.069c-0.88,1.072-1.319,1.824-1.319,2.254c-0.013,0.835-0.019,1.509-0.019,2.023v3.978
				c0,0.032-0.016,0.048-0.048,0.048h-0.405c-0.051,0-0.077-0.096-0.077-0.289v-1.57c0-1.175,0.01-2.761,0.029-4.758
				c0.488-0.745,0.979-1.525,1.474-2.34C20.562,18.632,20.674,18.494,20.687,18.494z M18.925,28.915h0.405
				c0.032,0,0.048,0.029,0.048,0.087h1.271c0.026,0,0.039,0.016,0.039,0.048v0.347c0,0.026-0.013,0.039-0.039,0.039h-1.271
				c0.013,2.312,0.019,4.087,0.019,5.326c0,0.238,0.01,0.639,0.029,1.204c0.013,0.026,0.019,0.048,0.019,0.067h-0.019
				c-0.27-0.276-0.437-0.594-0.501-0.954c-0.019-0.026-0.029-0.058-0.029-0.096c-0.013-2.562-0.019-4.523-0.019-5.885v-0.135
				C18.877,28.931,18.893,28.915,18.925,28.915z M22.315,37.102h0.019c0.263,0.019,0.398,0.035,0.405,0.048
				c0.289-0.013,0.523-0.019,0.703-0.019h1.387c0.103,0.116,0.315,0.173,0.636,0.173c0,0.013,0.116,0.019,0.347,0.019h0.27v0.308
				H24.54c-0.263,0-0.604,0-1.021,0c-0.405,0-0.799-0.161-1.185-0.482L22.315,37.102z M24.877,17.445
				c1.008,0.045,1.599,0.067,1.772,0.067v0.048c-0.636,0.135-1.21,0.44-1.724,0.915c-0.238,0.161-0.356,0.713-0.356,1.657
				c-0.032,0.334-0.055,1.535-0.067,3.602c0.026,4.527,0.077,8.668,0.154,12.424h-0.048c-0.289,0-0.433-0.112-0.433-0.337
				c-0.122-4.096-0.183-8.447-0.183-13.05V22.27c0-2.819,0.067-4.228,0.202-4.228C24.501,17.676,24.729,17.477,24.877,17.445z"/>
			<linearGradient id="SVGID_2_" gradientUnits="userSpaceOnUse" x1="40.8167" y1="43.9691" x2="40.8167" y2="16.2213">
				<stop  offset="0" style="stop-color:#93CFF9"/>
				<stop  offset="0.1045" style="stop-color:#ADDBFA"/>
				<stop  offset="0.2514" style="stop-color:#CBE8FC"/>
				<stop  offset="0.4073" style="stop-color:#E2F2FD"/>
				<stop  offset="0.574" style="stop-color:#F2F9FE"/>
				<stop  offset="0.7592" style="stop-color:#FCFEFF"/>
				<stop  offset="1" style="stop-color:#FFFFFF"/>
			</linearGradient>
			<path style="fill:url(#SVGID_2_);" d="M33.612,16.741c1.881,2.337,2.822,4.559,2.822,6.665v0.019
				c0,0.032,0.006,0.064,0.019,0.096c-0.084,0.764-0.523,1.714-1.319,2.851c-1.008,1.22-2.116,2.308-3.323,3.265
				c2.421-0.205,4.045-0.308,4.873-0.308c0,0.013,0.006,0.019,0.019,0.019c-0.244,0.591-0.366,0.925-0.366,1.002v11.432
				c0,0.411,0.222,0.693,0.665,0.848c0.167,0.039,0.302,0.058,0.405,0.058h0.077c0.539,0,0.957-0.286,1.252-0.857
				c0.327-0.578,0.491-1.278,0.491-2.1c0-0.148-0.032-0.533-0.096-1.156h0.973l0.029,0.029c0.019,0.379,0.029,0.68,0.029,0.905
				v0.328c0,1.599-0.591,2.636-1.772,3.111c-0.238,0.122-0.52,0.183-0.848,0.183h-0.318c-1.445,0-2.392-0.552-2.841-1.657
				c-0.218-0.443-0.327-0.693-0.327-0.751V29.84c-0.533,0.032-1.4,0.064-2.6,0.096v4.662c-0.276,1.027-0.681,1.724-1.214,2.09
				c-0.405,0.289-0.861,0.433-1.368,0.433c-0.533,0-1.185-0.157-1.955-0.472v-0.048c0.385-0.039,0.87-0.206,1.454-0.501
				c0.276-0.225,0.414-0.36,0.414-0.405v-4.623h-0.019c-0.629,0.353-1.04,0.53-1.233,0.53H27.42
				c-0.738-0.09-1.108-0.449-1.108-1.079v-0.385c0-0.482,0.164-0.764,0.491-0.848h0.048c0.122,0,0.388,0.084,0.799,0.25h0.019v0.077
				c-0.469,0.392-0.703,0.722-0.703,0.992v0.144c0,0.199,0.196,0.334,0.588,0.405c0.282,0,0.693-0.151,1.233-0.453V20.344
				l-1.522-0.125V20.18C30.964,18.132,33.079,16.986,33.612,16.741z M27.631,30.119h0.067c0.173,0,0.43,0.09,0.771,0.27v0.048
				c0,0.116-0.279,0.244-0.838,0.385h-0.096c-0.167-0.019-0.25-0.058-0.25-0.116v-0.067C27.285,30.511,27.4,30.338,27.631,30.119z
				 M27.969,31.843c0.128,0.071,0.295,0.122,0.501,0.154v0.376c0,0.019-0.032,0.042-0.096,0.067c-0.488,0-0.844-0.17-1.069-0.511
				l0.048-0.01h0.202C27.664,31.92,27.801,31.895,27.969,31.843z M32.909,30.206v0.029c0,0.006-0.084,0.08-0.25,0.222
				c0.603-0.045,0.953-0.077,1.05-0.096l0.019,0.048v0.27c0,0.045-0.023,0.067-0.067,0.067c-0.488,0-0.953,0.01-1.397,0.029v4.71
				c-0.212,0.88-0.581,1.538-1.108,1.974c-0.437,0.321-0.902,0.482-1.397,0.482h-0.067c-0.572,0-1.223-0.161-1.955-0.482V37.42
				c0.051,0,0.157-0.026,0.318-0.077c0.257,0.064,0.53,0.096,0.819,0.096c1.374,0,2.321-0.854,2.841-2.562
				c0.039-0.096,0.058-0.167,0.058-0.212v-4.373l0.019-0.048C32.319,30.238,32.691,30.225,32.909,30.206z M28.44,20.844h0.029v0.202
				l-0.029,0.029l-0.222-0.01h-0.135v-0.019C28.084,21.002,28.203,20.934,28.44,20.844z M31.455,18.34v10.508
				c1.971-1.644,2.957-3.268,2.957-4.873v-0.087c0-0.809-0.247-1.814-0.742-3.015C33.15,19.801,32.412,18.957,31.455,18.34z
				 M31.773,18.986h0.019c0.135,0.096,0.292,0.244,0.472,0.443v8.206c0,0.019-0.157,0.18-0.472,0.482l-0.019-0.048V18.986z
				 M35.905,19.698c0.905,1.541,1.358,3.082,1.358,4.623c-0.071,0.719-0.401,1.535-0.992,2.446
				c-0.302,0.462-0.896,1.146-1.782,2.051c-0.186,0.212-0.331,0.318-0.433,0.318l-1.214,0.087v-0.019
				c1.156-1.046,1.958-1.862,2.408-2.446c0.867-1.149,1.364-2.177,1.493-3.082l0.029-0.135c0-1.181-0.289-2.456-0.867-3.824V19.698z
				 M40.528,39.394h0.405c0.039,0.006,0.058,0.022,0.058,0.048c0.006,0.571,0.01,0.973,0.01,1.204c0,1.586-0.581,2.626-1.743,3.121
				c-0.315,0.109-0.507,0.164-0.578,0.164h-0.202c-0.122,0-0.218,0.013-0.289,0.039c-1.021,0-1.772-0.225-2.254-0.674h0.019
				c0.405,0.103,0.79,0.154,1.156,0.154h0.607c0.295,0.045,0.488,0.067,0.578,0.067h0.029c0.597,0,1.05-0.372,1.358-1.117
				c0.533-0.572,0.799-1.387,0.799-2.446v-0.511C40.486,39.41,40.502,39.394,40.528,39.394z M37.321,30.139h0.183l0.039,0.029
				c-0.244,0.584-0.366,0.899-0.366,0.944v11.182c0,0.026-0.01,0.039-0.029,0.039c-0.308-0.103-0.462-0.244-0.462-0.424
				c-0.019,0-0.029-0.048-0.029-0.144V30.408c0-0.16,0.077-0.241,0.231-0.241C36.97,30.148,37.115,30.139,37.321,30.139z"/>
			<linearGradient id="SVGID_3_" gradientUnits="userSpaceOnUse" x1="40.8167" y1="43.9691" x2="40.8167" y2="16.2213">
				<stop  offset="0" style="stop-color:#93CFF9"/>
				<stop  offset="0.1045" style="stop-color:#ADDBFA"/>
				<stop  offset="0.2514" style="stop-color:#CBE8FC"/>
				<stop  offset="0.4073" style="stop-color:#E2F2FD"/>
				<stop  offset="0.574" style="stop-color:#F2F9FE"/>
				<stop  offset="0.7592" style="stop-color:#FCFEFF"/>
				<stop  offset="1" style="stop-color:#FFFFFF"/>
			</linearGradient>
			<path style="fill:url(#SVGID_3_);" d="M47.78,16.568l0.019,0.029V22.8h0.019c1.201-2.491,1.984-4.084,2.35-4.777
				c0.764-0.822,1.4-1.233,1.907-1.233h0.761c0.353,0,0.921-0.006,1.705-0.019v0.039l-1.637,0.867v18.145
				c0,0.019,0.343,0.347,1.031,0.982l-0.039,0.029H50.4c-0.039,0-0.058-0.016-0.058-0.048V19.361h-0.019
				c-0.315,0.186-0.639,0.533-0.973,1.04c-0.514,0.893-1.031,1.939-1.551,3.14v12.27l0.78,0.905v0.019
				c-1.271,0.077-2.154,0.116-2.649,0.116h-0.347c-0.071,0-0.18-0.006-0.327-0.019c0.013-0.751,0.019-1.336,0.019-1.753v-2.995
				c0-5.477-0.019-9.705-0.058-12.684c-0.122-0.809-0.363-1.214-0.722-1.214c-0.417,0-0.857,0.44-1.319,1.319
				c-0.045,0.064-0.096,0.218-0.154,0.462v13.465c0,0.861-0.295,1.653-0.886,2.379c-0.449,0.405-0.861,0.607-1.233,0.607
				l-1.57,0.164v-0.048c0.61-0.475,0.966-0.771,1.069-0.886V22.655c-0.655-0.103-1.047-0.167-1.175-0.193v-0.058
				c1.13-0.86,1.994-1.586,2.591-2.177c0.353-0.456,0.982-1.275,1.888-2.456c0.629-0.7,1.043-1.072,1.242-1.117L47.78,16.568z
				 M44.573,18.562h0.019c0.077,0,0.17,0.212,0.279,0.636c-0.424,0.366-0.722,0.761-0.896,1.185
				c-0.071,0.199-0.106,0.35-0.106,0.453v13.291c0,1.207-0.424,2.144-1.271,2.812c-0.263,0.218-0.639,0.327-1.127,0.327
				c-0.051,0.013-0.488,0.064-1.31,0.154v-0.019c0.488-0.456,0.79-0.684,0.905-0.684c0.565,0,1.136-0.418,1.714-1.252
				c0.372-0.7,0.559-1.377,0.559-2.032V20.228c0-0.071,0.392-0.616,1.175-1.637L44.573,18.562z M48.984,37.025l0.433,0.51v0.019
				c-1.111,0.077-1.868,0.116-2.273,0.116H46.21c-0.09,0-0.135-0.023-0.135-0.067v-0.067c0-0.244,0.029-0.366,0.087-0.366
				C46.573,37.169,47.514,37.121,48.984,37.025z M48.368,17.377h0.222c0.032,0.006,0.048,0.023,0.048,0.048v2.889
				c0,0.032-0.161,0.379-0.482,1.04h-0.039v-3.91C48.117,17.4,48.201,17.377,48.368,17.377z M49.957,20.883h0.039v0.607
				c0,0.045-0.112,0.276-0.337,0.693c-0.417,0.822-0.758,1.551-1.021,2.186v11.818c0,0.032-0.016,0.048-0.048,0.048
				c-0.315-0.34-0.472-0.546-0.472-0.616V23.637c0.064-0.205,0.231-0.562,0.501-1.069h0.019v1.021h0.029L49.957,20.883z
				 M53.578,37.15h0.616c0.083,0,0.273,0.16,0.568,0.482c-1.207,0.026-2.116,0.039-2.726,0.039h-0.838
				c-0.019,0-0.029-0.013-0.029-0.039v-0.414l0.019-0.048C52.243,37.156,53.039,37.15,53.578,37.15z M55.37,17.589v0.039
				l-1.637,0.867V36.1c0,0.039-0.01,0.058-0.029,0.058c0-0.019-0.161-0.177-0.482-0.472V17.907c0-0.026,0.164-0.125,0.491-0.299
				h0.145C54.204,17.608,54.708,17.602,55.37,17.589z"/>
			<linearGradient id="SVGID_4_" gradientUnits="userSpaceOnUse" x1="40.8167" y1="43.9691" x2="40.8167" y2="16.2213">
				<stop  offset="0" style="stop-color:#93CFF9"/>
				<stop  offset="0.1045" style="stop-color:#ADDBFA"/>
				<stop  offset="0.2514" style="stop-color:#CBE8FC"/>
				<stop  offset="0.4073" style="stop-color:#E2F2FD"/>
				<stop  offset="0.574" style="stop-color:#F2F9FE"/>
				<stop  offset="0.7592" style="stop-color:#FCFEFF"/>
				<stop  offset="1" style="stop-color:#FFFFFF"/>
			</linearGradient>
			<path style="fill:url(#SVGID_4_);" d="M61.534,16.221c0.591,0,1.56,0.173,2.909,0.52c0.308-0.051,0.783-0.138,1.425-0.26
				l0.116,0.116c-0.835,0.597-1.31,0.896-1.425,0.896H64.51c0.013,2.909,0.019,5.146,0.019,6.713v0.867
				c-0.36,0-0.851-0.189-1.474-0.568c-0.501-0.379-0.806-0.78-0.915-1.204v-6.106c-0.34-0.353-0.665-0.53-0.973-0.53h-0.135
				c-0.681,0-1.21,0.697-1.589,2.09v4.151c0,0.475,0.286,1.111,0.857,1.907c0.642,0.706,1.332,1.332,2.071,1.878
				c0.925,0.7,1.48,1.358,1.666,1.974h0.01c0.039-0.045,0.388-0.331,1.05-0.857h0.029v0.01c-0.276,0.88-0.414,1.573-0.414,2.08
				c0.013,0.225,0.019,0.389,0.019,0.491c0,0.495-0.006,1.531-0.019,3.111l0.886-0.404l0.019,0.048
				c-0.982,1.49-1.586,2.379-1.811,2.668c-0.481,0.462-0.899,0.742-1.252,0.838c-0.661,0.135-1.316,0.202-1.965,0.202
				c-0.726,0-2.177-0.167-4.353-0.501v-0.067l1.31-0.751v-5.894c0-0.141-0.167-0.331-0.501-0.568
				c-0.218-0.122-0.459-0.183-0.722-0.183c-0.154,0.019-0.27,0.029-0.347,0.029l-0.019-0.048c0.019-0.257,0.116-0.385,0.289-0.385
				c0.334-0.077,0.629-0.116,0.886-0.116c1.123,0,2.109,0.517,2.957,1.551c0.379,0.604,0.594,1.101,0.645,1.493l-0.462,0.395
				c-0.18-0.263-0.369-0.395-0.568-0.395l-0.019,0.058v4.344c0,0.251,0.289,0.417,0.867,0.501h0.221c0.43,0,0.854-0.177,1.271-0.53
				v-6.28c-2.305-2.446-3.638-3.962-3.997-4.546c-0.424-0.623-0.636-1.108-0.636-1.454v-4.238c-0.925,0.135-1.409,0.202-1.454,0.202
				c-0.045-0.103-0.067-0.193-0.067-0.27c0.738-0.193,1.239-0.482,1.502-0.867c0.391-0.796,1.127-1.384,2.206-1.763
				C60.246,16.337,60.892,16.221,61.534,16.221z M57.065,19.9l0.039,0.048v0.279c0,0.045-0.103,0.067-0.308,0.067
				c-0.032,0-0.061-0.093-0.087-0.279C56.824,19.984,56.943,19.945,57.065,19.9z M56.862,29.368h0.048
				c0.051,0,0.157,0.103,0.318,0.308c0,0.045-0.013,0.067-0.039,0.067h-0.241l-0.154,0.01c0-0.006-0.01-0.01-0.029-0.01
				L56.862,29.368z M65.531,33.875h0.019v0.462c0.186-0.096,0.485-0.237,0.896-0.424l0.019,0.058
				c-0.97,1.458-1.592,2.36-1.868,2.706c-0.456,0.436-0.857,0.7-1.204,0.79c-0.578,0.135-1.198,0.202-1.859,0.202H61.37
				c-0.771,0-2.212-0.167-4.324-0.501V37.15c0-0.026,0.151-0.125,0.453-0.299c1.252,0.212,2.292,0.318,3.121,0.318
				c1.496,0,2.504-0.26,3.024-0.78c0.475-0.43,0.896-0.966,1.262-1.608C65.309,34.177,65.518,33.875,65.531,33.875z M61.505,17.107
				c0.103,0.045,0.209,0.125,0.318,0.241v0.096c0,0.032-0.141,0.093-0.424,0.183c-0.469,0.283-0.844,0.912-1.127,1.888v4.286
				c0,0.09,0.045,0.292,0.135,0.607c-0.43-0.648-0.645-1.152-0.645-1.512V18.88c0.135-0.687,0.35-1.188,0.645-1.502
				C60.663,17.281,61.029,17.191,61.505,17.107z M60.898,30.736c0.154,0.161,0.334,0.485,0.539,0.973
				c0.09,0.308,0.135,0.485,0.135,0.53c-0.186,0.161-0.34,0.289-0.462,0.385h-0.029c-0.141-0.244-0.305-0.366-0.491-0.366h-0.087
				v3.679l-0.019,0.058c-0.321-0.077-0.482-0.154-0.482-0.231v-3.708h0.048c0.019,0.084,0.074,0.167,0.164,0.25l0.896-0.799
				L60.898,30.736z M66.725,17.281l0.106,0.144c-0.867,0.604-1.361,0.905-1.483,0.905c0,1.586,0.01,4.106,0.029,7.561
				c-0.019,0-0.029,0.01-0.029,0.029c-0.7-0.148-1.213-0.372-1.541-0.674h0.048c0.244,0.077,0.584,0.154,1.021,0.231l-0.048-7.734
				c0.218-0.122,0.347-0.183,0.385-0.183h0.029c0.006,0,0.01,0.01,0.01,0.029L66.725,17.281z M65.954,28.617v0.029
				c-0.27,0.835-0.405,1.509-0.405,2.023c0,0.141,0.013,0.379,0.039,0.713c-0.026,0.475-0.039,0.934-0.039,1.377
				c-0.058,0.032-0.221,0.106-0.491,0.222c0-0.013-0.01-0.019-0.029-0.019c0.019-0.173,0.029-0.299,0.029-0.376V29.84
				c0-0.437,0.061-0.655,0.183-0.655C65.678,28.806,65.916,28.617,65.954,28.617z"/>
		</g>
	</g>
	<g>
		<path style="fill:#FFFFFF;" d="M77.281,33.582c0,0.013-0.013,0.145-0.039,0.394c-0.027,0.25-0.086,0.562-0.178,0.937
			c-0.092,0.375-0.234,0.779-0.424,1.213c-0.191,0.434-0.451,0.835-0.779,1.203c-0.329,0.368-0.74,0.677-1.233,0.927
			c-0.493,0.25-1.088,0.375-1.785,0.375c-0.71,0-1.312-0.125-1.805-0.375c-0.493-0.25-0.904-0.559-1.233-0.927
			c-0.329-0.368-0.589-0.769-0.779-1.203c-0.191-0.434-0.332-0.838-0.424-1.213c-0.092-0.375-0.151-0.687-0.178-0.937
			c-0.026-0.25-0.039-0.381-0.039-0.394v-9.33h0.533v9.33c0,0.026,0.01,0.158,0.03,0.394c0.02,0.237,0.072,0.523,0.158,0.858
			c0.085,0.335,0.21,0.694,0.375,1.075c0.164,0.382,0.394,0.733,0.69,1.055c0.296,0.322,0.661,0.592,1.095,0.809
			c0.434,0.217,0.96,0.325,1.578,0.325c0.618,0,1.144-0.108,1.578-0.325c0.434-0.217,0.795-0.486,1.085-0.809
			c0.289-0.322,0.516-0.674,0.68-1.055c0.164-0.381,0.289-0.74,0.375-1.075c0.085-0.335,0.138-0.624,0.158-0.868
			c0.02-0.243,0.03-0.378,0.03-0.404v-9.31h0.533V33.582z"/>
		<path style="fill:#FFFFFF;" d="M82.232,34.371h-3.353v4.261h-0.533V24.252h4.004c0.013,0,0.105,0.003,0.276,0.01
			c0.171,0.007,0.381,0.046,0.631,0.118c0.25,0.072,0.529,0.184,0.838,0.335c0.309,0.151,0.608,0.365,0.897,0.641
			c0.907,0.907,1.361,2.222,1.361,3.945c0,1.736-0.454,3.057-1.361,3.965c-0.382,0.355-0.766,0.608-1.154,0.759
			c-0.388,0.151-0.713,0.253-0.976,0.306l3.353,4.3h-0.671L82.232,34.371z M78.879,33.839h3.472
			c0.289-0.026,0.546-0.069,0.769-0.128c0.223-0.059,0.467-0.154,0.73-0.286c0.263-0.131,0.519-0.316,0.769-0.552
			c0.802-0.802,1.203-1.992,1.203-3.57c0-1.578-0.401-2.768-1.203-3.57c-0.25-0.237-0.51-0.421-0.779-0.552
			c-0.27-0.131-0.513-0.227-0.73-0.286c-0.217-0.059-0.47-0.095-0.759-0.108h-3.472V33.839z"/>
		<path style="fill:#FFFFFF;" d="M87.932,34.115v4.517H87.4V24.252h7.2v0.533h-6.667v8.797h6.746v0.533H87.932z"/>
		<path style="fill:#FFFFFF;" d="M96.335,21.984v1.065h-0.513v-1.065H96.335z M96.374,24.252v14.379h-0.533V24.252H96.374z"/>
		<path style="fill:#FFFFFF;" d="M97.419,24.252l8.718,12.663V24.252h0.533v14.379l-8.718-12.663v12.663h-0.533V24.252z"/>
		<path style="fill:#FFFFFF;" d="M116,31.235v2.347c0,0.013-0.007,0.145-0.02,0.394c-0.013,0.25-0.063,0.562-0.148,0.937
			c-0.086,0.375-0.214,0.779-0.385,1.213c-0.171,0.434-0.414,0.835-0.73,1.203c-0.316,0.368-0.717,0.677-1.203,0.927
			c-0.487,0.25-1.078,0.375-1.775,0.375c-0.71,0-1.305-0.125-1.785-0.375c-0.48-0.25-0.878-0.559-1.193-0.927
			c-0.316-0.368-0.559-0.769-0.73-1.203c-0.171-0.434-0.299-0.838-0.385-1.213c-0.086-0.375-0.135-0.687-0.148-0.937
			c-0.013-0.25-0.02-0.381-0.02-0.394v-4.28c0.026-0.513,0.082-0.957,0.168-1.331c0.085-0.375,0.214-0.779,0.385-1.213
			c0.171-0.434,0.414-0.835,0.73-1.203c0.316-0.368,0.717-0.677,1.203-0.927c0.486-0.25,1.078-0.375,1.775-0.375
			c0.697,0,1.289,0.125,1.775,0.375c0.486,0.25,0.888,0.559,1.203,0.927c0.316,0.368,0.559,0.769,0.73,1.203
			c0.171,0.434,0.299,0.838,0.385,1.213c0.085,0.375,0.141,0.819,0.168,1.331h-0.532c0-0.026-0.007-0.158-0.02-0.395
			c-0.013-0.237-0.056-0.523-0.128-0.858c-0.072-0.335-0.184-0.693-0.335-1.075c-0.151-0.381-0.365-0.733-0.641-1.055
			c-0.276-0.322-0.625-0.592-1.045-0.809c-0.421-0.217-0.94-0.325-1.558-0.325c-0.618,0-1.138,0.108-1.558,0.325
			c-0.421,0.217-0.769,0.487-1.045,0.809c-0.276,0.322-0.49,0.674-0.641,1.055c-0.151,0.382-0.263,0.74-0.335,1.075
			c-0.072,0.335-0.115,0.621-0.128,0.858c-0.013,0.237-0.02,0.368-0.02,0.395v4.28c0,0.026,0.006,0.158,0.02,0.394
			c0.013,0.237,0.056,0.523,0.128,0.858c0.072,0.335,0.184,0.694,0.335,1.075c0.151,0.382,0.365,0.733,0.641,1.055
			c0.276,0.322,0.624,0.592,1.045,0.809c0.421,0.217,0.94,0.325,1.558,0.325c0.618,0,1.137-0.108,1.558-0.325
			c0.421-0.217,0.769-0.486,1.045-0.809c0.276-0.322,0.49-0.674,0.641-1.055c0.151-0.381,0.263-0.74,0.335-1.075
			c0.072-0.335,0.115-0.621,0.128-0.858c0.013-0.237,0.02-0.368,0.02-0.394v-1.815h-3.728v-0.533H116z"/>
	</g>
</g>
</svg>
