<?xml version="1.0" encoding="iso-8859-1"?>
<!-- Generator: Adobe Illustrator 21.0.2, SVG Export Plug-In . SVG Version: 6.00 Build 0)  -->
<svg version="1.1" id="Layer_1" xmlns="http://www.w3.org/2000/svg" xmlns:xlink="http://www.w3.org/1999/xlink" x="0px" y="0px"
	 viewBox="0 0 640 193" style="enable-background:new 0 0 640 193;" xml:space="preserve">
<g>
	<g>
		<path style="fill:#7DDAFF;" d="M612.598,95.402c0.147,15.356,0.256,30.84,0.248,46.261l0,0.589l-0.541,0.2
			c-12.022,4.439-24.231,8.158-36.529,11.616c-12.298,3.445-24.703,6.493-37.171,9.245c-24.941,5.486-50.172,9.643-75.549,12.502
			c-12.693,1.391-25.423,2.445-38.171,3.176c-12.749,0.738-25.522,1.005-38.291,1.017c-12.774-0.012-25.533-0.52-38.291-1.272
			c-3.226-0.229-6.483-0.727-9.592-1.899c-1.549-0.585-3.058-1.364-4.398-2.416c-1.343-1.041-2.495-2.391-3.254-3.947
			c-0.769-1.552-1.138-3.269-1.199-4.956c-0.063-1.692,0.159-3.361,0.545-4.968c0.799-3.223,2.131-6.201,3.894-9.017l0.582,1.306
			c-4.691-0.518-9.608-0.2-14.259,0.85c-4.662,1.064-9.141,2.981-12.932,5.857c-3.857,2.938-7.512,6.139-11.039,9.498
			c-1.781,1.668-3.507,3.398-5.461,4.989c-0.979,0.788-2.04,1.541-3.263,2.09c-0.612,0.27-1.264,0.48-1.935,0.603
			c-0.332,0.067-0.684,0.096-1.007,0.124l-0.915,0.059c-1.217,0.068-2.447,0.185-3.756,0.123c-1.276-0.076-2.456-0.197-3.695-0.315
			c-2.452-0.245-4.902-0.578-7.333-1.057c-2.428-0.488-4.85-1.088-7.194-1.987c-2.338-0.891-4.639-2.046-6.602-3.751
			c-1.95-1.686-3.478-4.095-3.825-6.746c-0.395-2.641,0.201-5.258,1.136-7.602c0.951-2.359,2.262-4.516,3.724-6.535
			c1.481-2.018,3.083-3.891,4.902-5.655l0.259,1.402c-2.418-0.872-5.148-1.348-7.805-1.585c-2.681-0.237-5.387-0.194-8.071,0.066
			c-5.372,0.534-10.642,2-15.598,4.176c-4.981,2.127-9.5,5.174-13.888,8.433c-4.375,3.262-8.614,6.754-12.687,10.38l-0.343,0.305
			l-0.433-0.112c-16.245-4.218-32.366-8.818-48.426-13.655c-16.055-4.845-32.024-9.979-47.87-15.482
			c-15.839-5.519-31.561-11.4-47.018-17.948c-7.734-3.26-15.375-6.749-22.91-10.46c-7.527-3.727-14.949-7.696-22.078-12.183
			l-0.005-0.004l-2.522-1.72L15,95.155c6.225,0.336,12.443,0.562,18.66,0.67c6.217,0.133,12.434,0.168,18.652,0.176h37.312h74.625
			H313.5h149.25h74.625h37.312h18.656C599.572,95.993,605.674,96.101,612.598,95.402z M611.402,96.598
			c-5.514-0.699-11.849-0.591-18.058-0.598h-18.656h-37.312H462.75H313.5H164.25H89.625H52.313
			c-6.219,0.008-12.44,0.043-18.66,0.176c-6.22,0.108-12.44,0.334-18.652,0.67l0.451-1.56l0.006,0.003
			c7.06,4.443,14.436,8.39,21.925,12.097c7.499,3.693,15.11,7.169,22.821,10.419c15.41,6.528,31.101,12.397,46.913,17.907
			c15.819,5.494,31.768,10.622,47.803,15.46c16.035,4.83,32.154,9.429,48.354,13.635L202.497,165
			c4.132-3.679,8.381-7.179,12.813-10.484c4.417-3.282,9.077-6.429,14.22-8.625c5.099-2.238,10.541-3.756,16.108-4.309
			c2.782-0.27,5.591-0.315,8.384-0.068c2.804,0.261,5.54,0.71,8.295,1.703l1.227,0.442l-0.968,0.96
			c-3.36,3.329-6.416,7.238-8.21,11.583c-0.868,2.169-1.371,4.502-1.033,6.724c0.298,2.23,1.545,4.219,3.269,5.724
			c1.735,1.51,3.868,2.599,6.086,3.441c2.221,0.853,4.562,1.436,6.922,1.909c2.364,0.466,4.763,0.792,7.173,1.033
			c1.193,0.115,2.445,0.241,3.609,0.309c1.135,0.057,2.347-0.051,3.567-0.122l0.914-0.059c0.285-0.026,0.543-0.046,0.811-0.1
			c0.53-0.097,1.049-0.263,1.555-0.486c1.011-0.452,1.968-1.119,2.888-1.861c1.84-1.495,3.575-3.228,5.359-4.9
			c3.551-3.381,7.259-6.632,11.18-9.617c4.009-3.043,8.721-5.05,13.576-6.158c4.879-1.089,9.855-1.428,14.88-0.875l1.311,0.144
			l-0.729,1.162c-1.62,2.582-2.93,5.501-3.656,8.472c-0.72,2.961-0.784,6.145,0.527,8.783c1.277,2.66,3.893,4.464,6.737,5.531
			c2.868,1.084,5.987,1.574,9.109,1.793c12.704,0.749,25.441,1.256,38.177,1.268c12.736-0.012,25.475-0.278,38.193-1.014
			c12.717-0.729,25.415-1.78,38.078-3.168c25.317-2.852,50.49-6.999,75.372-12.473c12.439-2.745,24.814-5.786,37.079-9.222
			c12.253-3.444,24.467-7.168,36.375-11.565l-0.541,0.789C611.146,126.642,611.255,111.684,611.402,96.598z"/>
	</g>
	<g>
		<polygon style="fill:#7DDAFF;" points="359.302,96 367.634,96 364.659,79.913 		"/>
		<polygon style="fill:#7DDAFF;" points="315.483,96 323.897,96 318.39,79.913 		"/>
		<path style="fill:#7DDAFF;" d="M548.112,93.603c0-8.219-2.09-14.418-6.267-18.596c-1.302-1.233-2.656-2.191-4.058-2.877
			c-1.405-0.684-2.671-1.182-3.802-1.49c-1.13-0.308-2.45-0.496-3.956-0.565h-18.083V96h36.087
			C548.075,95.216,548.112,94.427,548.112,93.603z"/>
		<path style="fill:#7DDAFF;" d="M264.375,60.054c-3.884-2.383-10.018-3.574-18.402-3.574c-1.324,0-3.928,0.222-7.811,0.662V88.65
			c3.177,0.442,6.265,0.662,9.267,0.662c7.943,0,13.724-1.279,17.343-3.839c3.618-2.559,5.428-7.126,5.428-13.702
			C270.2,66.343,268.258,62.438,264.375,60.054z"/>
		<polygon style="fill:#7DDAFF;" points="175.146,69.322 165.756,96 183.749,96 		"/>
		<path style="fill:#7DDAFF;" d="M593.833,67.301v2.774h-34.727V96H612V50.337c0,0-358.538-104.856-597,45.663h138.147
			l20.874-52.097h3.508L196.894,96h28.029V45.227c0.485,0,3.916-0.165,10.293-0.497c6.377-0.33,11.022-0.496,13.934-0.496
			c23.3,0,34.95,9.267,34.95,27.802c0,6.09-1.876,11.573-5.626,16.45c-2.628,3.416-5.61,5.907-8.931,7.515h33.657l9.496-50.773
			h6.024L335.297,96h12.546l15.294-50.773h5.957L379.388,96h35.265l-2.134-0.995c-6.621-3.088-11.243-6.752-13.869-10.988
			c-2.625-4.236-3.938-9.333-3.938-15.291c0-7.237,2.559-13.239,7.678-18.005c5.119-4.766,11.693-7.149,19.726-7.149
			c10.724,0,18.18,1.744,22.374,5.229l-3.905,11.518c-1.766-1.279-4.458-2.515-8.077-3.707c-3.618-1.191-6.972-1.787-10.062-1.787
			c-4.501,0-8.042,1.281-10.623,3.839c-2.582,2.56-3.873,5.848-3.873,9.863c0,2.472,0.463,4.723,1.391,6.752
			c0.925,2.03,2.217,3.73,3.871,5.097c1.655,1.369,5.042,3.288,10.162,5.759l7.943,3.773c3.851,1.824,7.013,3.859,9.527,6.092
			h16.443V67.301h2.775V96h40.789V67.301h2.773V96h5.546V67.301h20.857c0.068,0,0.548,0.017,1.438,0.051
			c0.89,0.036,1.986,0.241,3.289,0.617c1.3,0.377,2.756,0.96,4.366,1.747c1.608,0.788,3.168,1.901,4.675,3.339
			c4.726,4.726,7.089,11.576,7.089,20.549c0,0.824-0.042,1.609-0.081,2.397h5.525V67.301H593.833z"/>
		<polygon style="fill:#7DDAFF;" points="188.914,112.016 160.12,112.016 165.756,96 153.147,96 134.635,142.201 149.462,142.201 
			156.611,121.747 192.687,121.747 199.373,142.201 214.068,142.201 196.894,96 183.749,96 		"/>
		<path style="fill:#7DDAFF;" d="M224.924,142.201h13.239V99.903c6.398,0.442,11.076,0.662,14.033,0.662l25.882,41.635h15.158
			l-28.133-44.613c1.546-0.357,3.021-0.9,4.44-1.587h-44.62V142.201z"/>
		<polygon style="fill:#7DDAFF;" points="376.177,142.201 388.754,142.201 379.388,96 367.634,96 		"/>
		<polygon style="fill:#7DDAFF;" points="294.56,142.201 307.137,142.201 315.483,96 303.201,96 		"/>
		<polygon style="fill:#7DDAFF;" points="341.822,115.988 335.297,96 323.897,96 340.167,143.525 343.477,143.525 359.302,96 
			347.843,96 		"/>
		<path style="fill:#7DDAFF;" d="M420.328,98.646c7.018,3.308,11.397,6.366,13.14,9.167c1.743,2.804,2.616,5.836,2.616,9.103
			c0,4.367-1.568,7.966-4.701,10.789c-3.134,2.825-7.281,4.236-12.444,4.236c-2.913,0-6.212-0.606-9.896-1.82
			c-3.686-1.214-6.763-2.724-9.235-4.535l-4.831,12.18c6.09,4.061,13.437,6.09,22.043,6.09c9.797,0,17.617-2.536,23.465-7.612
			c5.847-5.075,8.771-11.254,8.771-18.534c0-6.709-1.335-12.235-4.005-16.583c-1.117-1.817-2.599-3.522-4.406-5.127h-26.192
			L420.328,98.646z"/>
		<path style="fill:#7DDAFF;" d="M500.852,115.795c0,0.139-0.052,0.84-0.155,2.107c-0.103,1.268-0.378,2.773-0.822,4.521
			c-0.446,1.746-1.097,3.614-1.952,5.599c-0.857,1.987-2.039,3.818-3.544,5.496c-1.508,1.681-3.391,3.083-5.651,4.214
			c-2.26,1.129-5.001,1.695-8.221,1.695s-5.959-0.566-8.219-1.695c-2.26-1.132-4.161-2.534-5.702-4.214
			c-1.541-1.678-2.74-3.509-3.595-5.496c-0.857-1.986-1.508-3.853-1.952-5.599c-0.446-1.747-0.719-3.236-0.822-4.471
			c-0.103-1.232-0.153-1.916-0.153-2.054V96h-2.775v19.899c0,0.07,0.067,0.755,0.205,2.054c0.137,1.303,0.444,2.929,0.925,4.882
			c0.478,1.952,1.215,4.058,2.209,6.318c0.992,2.26,2.345,4.351,4.058,6.267c1.711,1.919,3.853,3.528,6.422,4.83
			c2.57,1.302,5.702,1.951,9.401,1.951c3.63,0,6.731-0.649,9.299-1.951c2.568-1.302,4.709-2.911,6.422-4.83
			c1.711-1.916,3.064-4.007,4.058-6.267c0.992-2.26,1.729-4.366,2.209-6.318c0.479-1.952,0.787-3.579,0.925-4.882
			c0.137-1.299,0.205-1.984,0.205-2.054V96h-2.773V115.795z"/>
		<path style="fill:#7DDAFF;" d="M541.845,112.2c-1.302,1.232-2.638,2.194-4.008,2.876c-1.37,0.686-2.637,1.182-3.8,1.491
			c-1.166,0.307-2.501,0.53-4.008,0.666h-18.083V96h-2.775v46.201h2.775V120.01h17.467l17.261,22.191h3.494L532.7,119.803
			c1.37-0.273,3.065-0.805,5.087-1.593c2.019-0.787,4.023-2.106,6.01-3.956c4.295-4.295,6.617-10.394,7.008-18.254h-2.772
			C547.656,103.032,545.602,108.441,541.845,112.2z"/>
		<polygon style="fill:#7DDAFF;" points="556.331,96 556.331,142.201 559.105,142.201 559.105,118.673 594.244,118.673 
			594.244,115.899 559.105,115.899 559.105,96 		"/>
	</g>
</g>
</svg>
