<?xml version="1.0" encoding="iso-8859-1"?>
<!-- Generator: Adobe Illustrator 21.0.2, SVG Export Plug-In . SVG Version: 6.00 Build 0)  -->
<svg version="1.1" id="Layer_1" xmlns="http://www.w3.org/2000/svg" xmlns:xlink="http://www.w3.org/1999/xlink" x="0px" y="0px"
	 viewBox="0 0 552 540" style="enable-background:new 0 0 552 540;" xml:space="preserve">
<ellipse style="fill:none;stroke:#27ADFF;stroke-width:10;stroke-miterlimit:10;" cx="278.5" cy="268.25" rx="243" ry="243.25"/>
<path style="fill:none;stroke:#27ADFF;stroke-width:8.8663;stroke-miterlimit:10;" d="M241.394,463.165l-61.553-22.936
	c0,0,4.714-113.127,47.937-220.576S347.141,85.303,347.141,85.303s39.971,70.168,2.342,179.701
	C311.856,374.537,241.394,463.165,241.394,463.165z"/>
<path style="fill:none;stroke:#F40B7A;stroke-width:9;stroke-miterlimit:10;" d="M40.171,290.188c0,0,37.5-66.25,97.5-64.25
	c0,0-34,55,16,66s47.329-66.055,120-66.044c0,0-37.671,63.107,22,67.107c42.195,2.828,65-66.172,115-67.117c0,0-29,56.671,19,67.363
	c48,10.692,66.831-65.417,87.915-67.363"/>
</svg>
